<svg width="355" height="643" viewBox="0 0 355 643" fill="none" xmlns="http://www.w3.org/2000/svg">
<g clip-path="url(#clip0_1_283)">
<path d="M467.886 517.839C471.548 425.707 445.361 337.3 393.577 261.124C346.695 192.149 280.422 134.287 210.425 89.6798C163.76 59.9417 100.496 25.0818 43.2205 34.3633C26.3729 37.095 9.05988 47.6492 2.5132 63.9461C-3.07165 77.8218 1.58239 93.591 7.50853 106.473C24.4492 143.289 57.524 173.337 87.1237 199.94C116.568 226.388 147.967 250.476 179.367 274.534C197.331 288.285 214.365 303.247 232.237 317.154C265.28 342.919 299.627 366.976 333.726 391.313C370.245 417.357 406.515 443.743 440.893 472.518C473.006 499.37 503.878 527.711 539.838 549.502C541.11 550.278 542.816 549.968 543.189 548.385C553.21 507.906 528.358 468.142 545.112 428.315C557.833 398.142 582.934 374.426 603.784 349.872C636.952 310.853 664.628 253.736 629.785 206.707C600.651 167.408 542.537 157.413 497.207 153.16C454.234 149.156 409.804 150.584 367.359 158.686C322.06 167.377 276.791 179.266 233.943 196.402C209.928 205.993 153.956 227.878 160.72 262.831C164.288 281.208 181.259 287.261 197.797 290.613C225.1 296.17 254.111 293.997 281.694 292.507C320.353 290.396 359.199 291.731 397.89 290.676C446.261 289.341 494.507 285.46 542.165 276.924C583.182 269.567 624.2 259.323 663.139 244.454C687.805 235.049 744.895 213.195 734.47 177.031C722.742 136.367 662.115 136.46 628.823 137.019C578.746 137.826 528.234 147.169 479.615 158.841C406.639 176.38 334.377 200.809 265.56 230.672C232.919 244.858 200.341 260.503 169.873 279.004C145.578 293.718 122.494 313.615 115.762 342.329C115.544 343.26 115.855 344.409 116.692 344.968C170.214 379.734 243.779 352.945 297.579 332.458C327.241 321.159 356.313 308.369 386.037 297.256C421.315 284.064 456.779 271.43 491.653 257.15C526.217 242.995 560.098 227.04 591.963 207.483C621.097 189.603 652.31 166.663 670.585 137.174C681.755 119.107 672.974 105.449 653.086 103.369C622.245 100.11 588.767 117.059 562.705 131.276C476.481 178.335 414.892 259.23 349.239 329.881C348.308 330.906 349.798 332.892 350.853 331.744C407.229 271.119 462.457 207.452 529.847 158.655C560.967 136.118 597.207 115.165 635.494 108.584C650.046 106.07 677.753 105.946 670.523 128.265C664.442 147.014 643.437 163.652 628.947 175.821C570.555 224.867 495.345 251.78 424.79 277.917C361.495 301.354 299.193 331.433 233.819 348.444C199.565 357.353 160.658 362.32 127.645 346.675C109.711 338.169 137.822 309.89 145.982 302.285C158.951 290.21 174.651 281.115 190.133 272.702C271.144 228.623 358.734 196.867 447.564 172.779C495.128 159.896 543.499 150.242 592.615 145.617C620.229 143.01 648.432 141.923 675.953 145.959C695.841 148.877 720.042 155.985 727.768 176.721C734.687 195.284 715.761 211.271 702.419 220.397C681.321 234.8 655.879 243.244 631.709 250.849C579.118 267.425 524.262 277.514 469.469 282.636C419.546 287.323 369.314 287.664 319.205 287.789C292.305 287.851 265.498 290.117 238.597 290.086C216.63 290.086 173.348 291.576 164.784 265.501C158.579 246.596 178.529 230.889 192.026 221.887C233.85 194.073 287.247 181.222 335.556 169.892C374.899 160.641 414.055 155.675 454.545 155.675C506.887 155.675 568.662 161.014 611.448 194.291C635.525 213.009 643.685 241.443 639.807 270.933C635.308 305.11 611.634 332.923 589.853 357.943C569.934 380.821 549.084 403.606 538.1 432.381C532.236 447.716 533.105 463.64 535.246 479.658C536.549 489.436 538.504 499.152 539.869 508.93C540.427 512.997 541.792 545.56 537.232 542.797C497.145 518.429 463.418 484.811 427.086 455.414C391.622 426.732 354.297 400.439 317.157 373.992C265.001 336.835 215.482 296.667 164.753 257.709C126.187 228.095 88.1165 197.364 54.4213 162.224C33.0437 139.781 -13.0313 91.6354 11.9144 57.8309C29.5687 33.9287 65.0635 36.0706 90.6297 41.596C124.573 48.9219 156.779 64.9395 186.689 82.1366C259.602 124.043 326.714 184.357 376.605 251.935C432.485 327.615 462.984 423.131 463.636 517.001C463.636 519.516 467.731 520.788 467.855 517.808L467.886 517.839Z" fill="#45B9AB"/>
<path d="M204.343 569.555C201.21 578.123 201.086 587.187 200.465 596.189C200.465 596.375 200.527 596.561 200.713 596.624C215.048 603.422 230.871 597.896 244.337 591.502C268.197 580.171 289.109 562.167 308.718 544.753C345.33 512.221 376.543 474.133 413.186 441.787C475.364 386.936 541.389 335.438 595.779 272.423C639.062 222.259 680.824 160.3 690.505 93.1875C694.352 66.6778 689.232 39.8887 669.965 20.4566C647.563 -2.11084 614.892 -3.94231 586.13 5.05982C553.986 15.0863 525.969 37.4364 501.054 59.383C469.407 87.2896 441.234 118.828 416.04 152.633C373.347 209.967 341.886 274.161 315.265 340.218C294.353 392.058 273.875 446.723 267.856 502.629C265.094 528.238 266.428 576.012 303.568 569.121C320.384 566.016 336.332 555.524 350.263 546.243C371.827 531.901 391.777 515.139 411.169 498.066C448.153 465.534 483.214 430.643 516.505 394.355C530.747 378.865 544.213 362.755 555.599 344.999C567.917 325.815 581.321 297.567 569.841 274.999C556.282 248.365 522.308 240.481 495.19 236.011C464.256 230.92 432.485 233.434 401.861 239.363C334.47 252.432 270.648 286.423 218.678 330.688C180.949 362.817 136.425 411.459 131.989 463.547C129.351 494.713 155.383 510.638 182.625 515.418C223.673 522.62 267.794 514.083 307.725 504.647C351.752 494.248 395.376 479.658 436.146 460.009C476.543 440.545 510.921 410.124 522.09 364.679C536.487 306.041 490.722 253.425 448.836 219.404C399.813 179.577 334.781 145.12 271.765 135.901C194.508 124.602 175.985 208.818 178.56 267.86C181.29 330.068 205.305 391.965 235.526 445.698C265.932 499.804 308.532 551.365 363.512 581.692C417.53 611.524 479.211 616.397 536.983 594.109C570.306 581.258 598.696 557.449 609.121 522.403C619.701 486.891 610.579 447.995 597.486 414.501C579.676 368.932 552 327.367 522.339 288.751C477.194 229.989 423.983 176.1 365.839 130.189C325.752 98.4957 279.118 61.618 227.676 51.3432C226.217 51.0638 224.294 51.1569 223.456 52.6469C210.083 76.6422 217.158 104.3 226.776 128.358C238.349 157.413 255.941 183.83 272.913 209.905C315.885 275.931 351.318 346.489 398.448 409.876C441.11 467.241 493.546 514.89 558.299 545.808C584.051 558.101 614.52 569.4 643.468 564.526C671.299 559.839 679.552 535.378 678.683 510.017C678.187 496.048 674.991 482.39 672.416 468.731C672.044 466.714 669.096 466.9 669.499 469.073C675.363 500.27 683.586 549.968 641.637 557.945C607.073 564.526 568.538 544.566 539.372 528.487C470.306 490.367 419.391 430.922 376.295 365.89C335.37 304.148 298.634 239.27 259.851 176.162C242.569 148.038 224.139 115.848 223.487 81.9193C223.363 74.7487 224.945 67.7953 227.552 61.1834C228.917 57.6757 226.062 57.7688 230.344 58.7311C231.926 59.1036 233.509 59.5382 235.06 59.9728C243.003 62.1457 250.698 65.1878 258.237 68.5093C297.921 86.0479 334.005 112.682 367.359 140.03C408.501 173.741 446.54 211.271 481.476 251.377C515.513 290.458 546.602 332.613 570.989 378.431C590.07 414.315 606.391 455.57 604.622 496.917C602.978 535.099 580.297 564.092 547.098 581.258C487.868 611.865 417.436 605.129 361.216 571.728C302.637 536.93 259.913 478.292 230.003 418.257C200.651 359.371 181.011 292.166 188.271 225.922C192.863 183.923 214.675 142.203 262.302 142.916C296.68 143.444 333.602 160.983 364.07 175.883C422.587 204.503 489.76 249.887 511.293 314.733C529.785 370.36 491.063 422.324 443.996 447.778C403.598 469.632 358.796 484.594 314.427 495.862C264.505 508.558 108.191 539.103 145.889 438.59C169.904 374.55 229.599 325.256 286.906 291.917C347.067 256.933 419.639 234.707 489.605 243.647C521.191 247.683 568.165 259.882 565.497 299.771C563.604 328.112 541.327 355.211 523.735 376.04C495.252 409.752 463.915 441.352 432.05 471.804C397.548 504.74 359.168 542.393 314.582 561.205C298.417 568.034 283.028 568.686 275.24 550.62C265.249 527.462 271.393 497.476 276.14 473.822C286.844 420.337 307.198 368.715 328.203 318.551C361.092 240.015 404.033 166.229 461.681 103.183C506.111 54.5715 600.123 -37.9641 667.762 23.0951C695.593 48.2079 689.667 90.7663 680.204 122.801C670.12 156.885 652.497 189.2 633.012 218.721C566.614 319.389 463.76 383.366 382.035 469.321C352.404 500.487 322.804 531.777 289.668 559.28C274.806 571.635 258.982 583.182 241.545 591.595C233.385 595.537 224.573 598.331 215.451 598.765C211.076 598.983 206.733 598.052 202.668 596.499C198.076 594.73 204.654 570.548 204.964 569.741C205.119 569.338 204.561 569.027 204.405 569.493L204.343 569.555Z" fill="#45B9AB"/>
<path d="M223.084 293.531C220.695 415.805 368.693 480.341 469.5 498.656C518.15 507.503 569.686 507.968 618.615 501.605C666.459 495.365 719.763 479.534 743.871 433.933C767.234 389.792 735.804 344.471 705.553 313.305C663.821 270.343 611.076 237.842 558.95 209.16C483.493 167.626 402.885 142.327 317.809 128.389C273.906 121.187 223.239 115.165 180.484 131.09C144.772 144.406 128.793 181.843 150.201 215.089C166.646 240.605 196.339 257.833 222.029 272.516C255.104 291.389 289.388 308.028 324.666 322.369C398.386 352.325 476.543 370.36 555.755 377.406C575.519 379.176 656.53 386.657 635.184 344.564C621.997 318.582 590.66 298.436 566.614 283.691C536.549 265.252 503.226 252.339 469.376 242.716C398.045 222.415 321.129 218.627 247.688 227.443C217.033 231.106 186.069 237.315 156.81 247.31C135.526 254.574 111.635 266.96 107.105 291.048C101.644 320.103 131.771 339.349 153.583 350.493C184.145 366.107 218.678 372.346 249.084 387.836C250.263 388.426 250.729 386.346 249.674 385.819C225.628 373.557 199.038 366.759 174.123 356.577C148.65 346.209 112.007 330.099 109.835 298.467C107.446 263.576 155.011 251.252 180.794 244.827C213.186 236.756 246.137 232.162 279.429 230.144C356.562 225.457 436.301 235.825 508.532 263.7C544.213 277.452 577.38 296.946 605.832 322.524C615.202 330.937 626.806 341.522 630.126 354.187C633.384 366.604 616.629 369.646 608.097 370.95C582.624 374.861 555.413 371.012 530.064 367.97C486.471 362.755 443.53 354.218 401.334 342.081C356.438 329.136 312.814 311.877 270.834 291.327C240.862 276.645 210.704 260.627 184.083 240.388C160.627 222.539 138.473 197.209 150.45 166.322C157.245 148.783 174.62 139.316 191.684 134.194C238.256 120.287 292.584 129.941 339.156 139.067C385.324 148.1 431.088 160.859 475.24 177.156C513.279 191.186 549.301 211.953 584.051 232.565C636.176 263.514 691.684 299.584 726.279 350.524C756.902 395.628 745.174 446.257 698.292 473.667C658.578 496.917 608.469 501.418 563.418 502.35C522.339 503.219 481.011 499.68 441.048 489.84C348.122 466.993 221.967 405.096 223.456 293.469C223.456 293.159 223.053 293.252 223.053 293.531H223.084Z" fill="#45B9AB"/>
<path d="M529.102 385.415C378.498 383.925 213.031 431.605 103.04 538.544C85.7275 555.369 64.2258 578.805 66.1495 604.819C67.7629 627.013 92.9878 637.164 111.511 640.641C140.459 646.104 171.455 641.168 200 635.705C230.468 629.869 260.409 621.209 289.916 611.71C388.116 580.078 492.211 539.227 569.686 469.166C605.181 437.069 634.439 393.734 630.095 343.943C624.417 278.818 557.089 267.984 503.257 271.523C420.974 276.924 350.573 327.926 287.341 376.413C246.602 407.641 195.997 440.701 172.51 487.853C165.374 502.194 164.505 520.012 178.25 530.722C193.174 542.331 213.776 542.642 231.802 541.742C285.045 539.103 338.225 519.826 387.837 501.574C471.175 470.966 556.003 440.297 630.623 391.22C664.504 368.932 702.078 339.597 713.434 298.715C725.503 255.226 690.194 216.02 654.606 196.96C570.399 151.825 434.067 192.676 409.525 290.893C396.835 341.739 423.828 394.386 455.724 432.288C488.643 471.37 537.79 504.616 590.629 503.374C621.749 502.629 648.556 485.804 667.917 462.306C668.693 461.343 667.452 459.481 666.552 460.567C575.302 569.027 418.895 432.785 410.455 325.256C405.801 266.028 451.07 219.559 502.388 198.605C554.607 177.28 620.135 178.118 667.017 211.705C687.309 226.233 705.367 249.048 708.531 274.379C711.138 295.177 701.209 315.23 689.046 331.34C657.647 372.967 607.259 400.253 561.681 423.379C485.168 462.213 401.489 494.217 319.236 518.864C292.212 526.966 264.536 533.764 236.425 536.496C215.885 538.482 180.453 539.569 172.603 514.984C164.598 489.871 197.89 459.201 213.217 444.084C230.127 427.384 248.743 412.452 267.576 397.956C334.16 346.706 406.236 289.31 492.336 278.662C523.549 274.813 558.919 275.682 587.619 289.682C617.84 304.427 626.155 338.014 622.68 369.087C616.474 424.652 567.452 466.9 524.666 496.917C475.86 531.156 421.036 556.735 365.839 578.774C320.353 596.934 273.689 613.014 226.155 625.027C195.191 632.849 163.171 638.902 131.12 638.344C96.2766 637.754 55.5382 620.122 75.954 578.743C90.94 548.416 122.525 524.575 149.022 504.864C185.014 478.106 224.976 456.873 266.366 439.769C349.581 405.344 439.652 390.071 529.351 388.147C530.995 388.116 530.685 385.415 529.165 385.384L529.102 385.415Z" fill="#45B9AB"/>
<path d="M458.299 170.264C423.425 197.674 426.093 256.654 429.661 296.294C435.091 356.329 451.318 414.874 486.285 464.758C504.932 491.392 529.506 513.618 558.95 527.618C584.268 539.662 616.474 546.926 643.313 535.875C668.258 525.569 678.776 497.041 681.135 472.115C684.454 437.193 668.476 402.705 650.883 373.681C611.448 308.649 553.086 252.246 488.085 213.412C424.542 175.448 353.459 155.985 280.049 150.522C239.776 147.542 173.254 144.934 154.483 190.441C132.547 243.616 191.653 294.959 228.855 321.655C282.562 360.209 345.919 388.519 410.735 401.246C479.894 414.812 558.175 407.92 610.207 355.677C701.581 263.886 588.426 122.988 504.25 75.4006C450.511 45.0106 385.044 32.9974 327.365 59.0105C273.037 83.5335 238.783 138.415 220.974 193.173C182.345 311.908 214.427 459.667 330.344 522.744C380.514 550.03 438.938 547.95 487.216 517.808C509.152 504.119 532.515 483.507 545.081 460.598C554.669 443.153 561.184 424.062 566.8 405.034C578.621 365.083 590.722 312.777 572.944 272.889C558.392 240.233 515.978 238.991 493.421 263.576C465.59 293.904 459.23 344.316 455.196 383.366C451.194 422.013 449.301 464.944 460.564 502.629C461.153 504.554 464.132 504.398 463.48 502.288C457.585 482.607 457.927 460.071 457.927 439.769C457.927 412.359 459.726 384.98 463.884 357.881C470.027 318.116 486.13 242.437 541.265 252.122C590.163 260.72 575.55 341.522 568.755 373.961C564.039 396.466 557.275 418.692 548.494 439.956C538.69 463.734 522.959 481.769 503.474 498.625C452.249 542.952 384.238 547.795 326 514.704C266.552 480.931 227.893 415.898 214.769 350.121C190.443 228.312 252.218 48.0527 398.82 49.6048C467.886 50.3498 531.988 91.5733 576.667 141.582C616.35 186.034 650.635 251.19 631.026 311.815C605.398 391.003 506.701 408.883 435.122 400.874C365.528 393.082 298.665 363.531 240.521 325.287C211.666 306.321 183.431 283.194 165.746 253.053C150.295 226.667 148.185 190.379 174.651 170.544C196.028 154.526 227.024 153.533 252.559 153.688C280.235 153.874 308.439 157.227 335.649 162.038C422.742 177.404 504.964 220.831 567.669 282.977C594.787 309.859 619.949 340.218 640.675 372.315C661.743 404.94 678.901 444.053 672.447 483.6C668.848 505.733 656.158 525.383 634.749 533.267C614.582 540.686 591.001 535.161 571.423 528.518C524.914 512.749 491.25 472.332 468.941 430.302C447.936 390.692 437.263 347.141 432.236 302.844C427.613 262.055 422.028 199.475 458.268 170.295C458.33 170.264 458.268 170.14 458.206 170.202L458.299 170.264Z" fill="#45B9AB"/>
</g>
<defs>
<clipPath id="clip0_1_283">
<rect width="752" height="643" fill="white"/>
</clipPath>
</defs>
</svg>
