<svg width="295" height="557" viewBox="0 0 295 557" fill="none" xmlns="http://www.w3.org/2000/svg">
<g clip-path="url(#clip0_21_2154)">
<path d="M405.045 448.579C408.215 368.77 385.545 292.187 340.716 226.199C300.131 166.449 242.759 116.326 182.163 77.6853C141.766 51.9247 86.9988 21.7272 37.4157 29.7673C22.8309 32.1336 7.84311 41.2762 2.1757 55.3935C-2.65906 67.4133 1.3699 81.0735 6.50012 92.2328C21.1655 124.124 49.7981 150.154 75.4223 173.199C100.912 196.109 128.094 216.976 155.276 237.815C170.828 249.728 185.574 262.689 201.045 274.735C229.651 297.054 259.385 317.894 288.904 338.976C320.518 361.536 351.917 384.393 381.677 409.32C409.477 432.58 436.203 457.13 467.333 476.007C468.434 476.68 469.912 476.411 470.234 475.039C478.91 439.975 457.395 405.529 471.899 371.029C482.912 344.892 504.641 324.348 522.691 303.078C551.404 269.277 575.363 219.799 545.199 179.061C519.978 145.018 469.67 136.359 430.428 132.675C393.227 129.207 354.764 130.444 318.02 137.462C278.804 144.991 239.616 155.29 202.523 170.133C181.733 178.442 133.278 197.4 139.134 227.678C142.222 243.597 156.915 248.84 171.231 251.744C194.868 256.558 219.982 254.675 243.86 253.385C277.327 251.556 310.956 252.713 344.45 251.798C386.324 250.642 428.091 247.281 469.348 239.886C504.856 233.513 540.365 224.639 574.074 211.759C595.427 203.611 644.849 184.681 635.824 153.354C625.671 118.128 573.187 118.209 544.367 118.693C501.015 119.392 457.287 127.486 415.198 137.596C352.024 152.789 289.468 173.952 229.893 199.82C201.636 212.109 173.434 225.661 147.057 241.688C126.026 254.433 106.042 271.67 100.214 296.543C100.026 297.35 100.294 298.345 101.02 298.829C147.353 328.946 211.037 305.74 257.612 287.992C283.29 278.204 308.458 267.126 334.189 257.499C364.729 246.071 395.429 235.126 425.62 222.757C455.542 210.495 484.872 196.674 512.457 179.733C537.679 164.244 564.7 144.373 580.52 118.827C590.19 103.177 582.588 91.3455 565.371 89.5438C538.673 86.7204 509.691 101.402 487.129 113.718C412.485 154.483 359.169 224.559 302.334 285.76C301.528 286.648 302.817 288.369 303.73 287.374C352.534 234.858 400.345 179.706 458.684 137.435C485.625 117.913 516.997 99.762 550.142 94.0614C562.739 91.8833 586.725 91.7757 580.466 111.11C575.202 127.351 557.018 141.764 544.474 152.305C493.924 194.791 428.816 218.105 367.737 240.746C312.943 261.048 259.009 287.105 202.415 301.841C172.762 309.558 139.08 313.86 110.501 300.308C94.9762 292.94 119.311 268.443 126.375 261.855C137.603 251.395 151.194 243.516 164.597 236.229C234.727 198.045 310.553 170.537 387.452 149.67C428.628 138.511 470.502 130.148 513.021 126.141C536.927 123.882 561.342 122.941 585.167 126.437C602.384 128.965 623.335 135.122 630.023 153.085C636.012 169.165 619.628 183.014 608.078 190.919C589.814 203.396 567.789 210.71 546.865 217.298C501.337 231.658 453.849 240.397 406.415 244.834C363.198 248.894 319.712 249.19 276.333 249.297C253.046 249.351 229.839 251.314 206.552 251.287C187.535 251.287 150.066 252.578 142.652 229.99C137.28 213.614 154.551 200.008 166.235 192.21C202.442 168.116 248.668 156.984 290.488 147.169C324.547 139.156 358.444 134.854 393.496 134.854C438.808 134.854 492.286 139.479 529.325 168.305C550.169 184.519 557.233 209.151 553.875 234.696C549.981 264.302 529.487 288.396 510.631 310.069C493.387 329.887 475.337 349.624 465.829 374.551C460.752 387.835 461.504 401.629 463.358 415.505C464.486 423.975 466.178 432.392 467.36 440.862C467.843 444.385 469.025 472.592 465.077 470.199C430.374 449.09 401.177 419.968 369.725 394.504C339.024 369.657 306.712 346.881 274.561 323.971C229.409 291.784 186.541 256.988 142.625 223.241C109.239 197.588 76.2818 170.967 47.1121 140.527C28.6057 121.086 -11.281 79.3794 10.3142 50.0962C25.5974 29.3908 56.325 31.2463 78.4574 36.0327C107.842 42.3787 135.722 56.254 161.615 71.1511C224.736 107.453 282.833 159.7 326.024 218.24C374.398 283.797 400.801 366.538 401.365 447.853C401.365 450.032 404.911 451.134 405.018 448.553L405.045 448.579Z" fill="white"/>
<path d="M176.898 493.378C174.186 500.8 174.078 508.652 173.541 516.45C173.541 516.611 173.595 516.773 173.756 516.826C186.165 522.715 199.864 517.929 211.521 512.39C232.176 502.575 250.279 486.978 267.255 471.893C298.949 443.712 325.97 410.718 357.691 382.699C411.518 335.184 468.676 290.574 515.761 235.987C553.23 192.533 589.384 138.86 597.764 80.7239C601.095 57.7598 596.663 34.5537 579.983 17.7205C560.59 -1.82853 532.307 -3.41504 507.408 4.38307C479.581 13.0686 455.327 32.4294 433.758 51.4406C406.361 75.6148 381.973 102.935 360.163 132.218C323.204 181.884 295.968 237.493 272.922 294.715C254.819 339.621 237.091 386.974 231.88 435.403C229.49 457.588 230.645 498.971 262.796 493.002C277.354 490.313 291.16 481.224 303.22 473.184C321.887 460.761 339.158 446.24 355.946 431.451C387.962 403.27 418.314 373.045 447.134 341.611C459.463 328.193 471.12 314.237 480.978 298.856C491.641 282.238 503.244 257.768 493.306 238.219C481.569 215.147 452.157 208.317 428.682 204.445C401.903 200.035 374.398 202.213 347.888 207.349C289.548 218.67 234.298 248.114 189.308 286.459C156.646 314.291 118.102 356.427 114.261 401.549C111.978 428.546 134.514 442.341 158.097 446.482C193.632 452.721 231.827 445.326 266.395 437.151C304.509 428.143 342.274 415.505 377.568 398.483C412.539 381.623 442.3 355.271 451.969 315.904C464.432 265.109 424.814 219.53 388.553 190.059C346.115 155.559 289.817 125.711 235.265 117.725C168.384 107.937 152.349 180.889 154.578 232.034C156.942 285.922 177.731 339.54 203.892 386.087C230.215 432.956 267.093 477.621 314.689 503.892C361.452 529.734 414.849 533.955 464.862 514.648C493.709 503.516 518.286 482.891 527.311 452.532C536.47 421.77 528.573 388.077 517.238 359.063C501.821 319.588 477.862 283.582 452.184 250.131C413.103 199.228 367.039 152.547 316.703 112.777C282.001 85.3221 241.63 53.3767 197.097 44.4761C195.835 44.2341 194.169 44.3148 193.444 45.6055C181.867 66.3915 187.992 90.3505 196.318 111.19C206.337 136.359 221.566 159.243 236.258 181.83C273.459 239.025 304.133 300.146 344.933 355.056C381.865 404.749 427.258 446.025 483.315 472.807C505.608 483.456 531.984 493.244 557.045 489.022C581.138 484.962 588.282 463.772 587.53 441.803C587.101 429.703 584.334 417.871 582.105 406.039C581.782 404.292 579.231 404.453 579.58 406.335C584.656 433.36 591.774 476.411 555.46 483.321C525.538 489.022 492.178 471.732 466.93 457.803C407.14 424.782 363.063 373.287 325.755 316.953C290.327 263.469 258.525 207.268 224.951 152.601C209.99 128.239 194.035 100.354 193.471 70.9628C193.363 64.7512 194.733 58.7278 196.99 53.0002C198.171 49.9617 195.7 50.0423 199.407 50.8759C200.777 51.1986 202.147 51.5751 203.49 51.9515C210.366 53.8338 217.027 56.4691 223.554 59.3463C257.907 74.5392 289.145 97.6108 318.02 121.301C353.636 150.503 386.566 183.014 416.81 217.755C446.275 251.61 473.188 288.127 494.3 327.816C510.819 358.901 524.947 394.638 523.416 430.456C521.993 463.53 502.358 488.646 473.618 503.516C422.343 530.029 361.371 524.194 312.701 495.261C261.99 465.117 225.004 414.322 199.111 362.316C173.702 311.306 156.7 253.089 162.985 195.706C166.96 159.323 185.843 123.183 227.072 123.802C256.833 124.259 288.796 139.452 315.172 152.359C365.83 177.152 423.981 216.465 442.622 272.638C458.63 320.825 425.109 365.839 384.363 387.889C349.392 406.819 310.606 419.78 272.197 429.541C228.979 440.539 93.66 466.999 126.295 379.929C147.084 324.455 198.762 281.754 248.372 252.874C300.453 222.569 363.278 203.316 423.847 211.06C451.19 214.556 491.856 225.123 489.546 259.677C487.908 284.228 468.622 307.703 453.393 325.746C428.736 354.948 401.607 382.322 374.022 408.702C344.154 437.232 310.929 469.849 272.331 486.145C258.337 492.061 245.015 492.625 238.273 476.975C229.624 456.915 234.942 430.94 239.052 410.449C248.319 364.118 265.939 319.4 284.123 275.945C312.594 207.914 349.768 143.996 399.673 89.3825C438.136 47.2727 519.521 -32.8865 578.076 20.0062C602.169 41.7602 597.039 78.6264 588.847 106.377C580.117 135.902 564.861 163.895 547.993 189.467C490.513 276.672 401.473 332.092 330.724 406.55C305.073 433.548 279.449 460.653 250.763 484.478C237.897 495.18 224.198 505.183 209.103 512.47C202.039 515.885 194.411 518.305 186.514 518.682C182.727 518.87 178.967 518.063 175.448 516.719C171.473 515.186 177.167 494.239 177.436 493.54C177.57 493.19 177.086 492.921 176.952 493.324L176.898 493.378Z" fill="white"/>
<path d="M193.122 254.272C191.053 360.192 319.174 416.096 406.442 431.961C448.558 439.625 493.172 440.028 535.53 434.516C576.948 429.111 623.093 415.397 643.963 375.896C664.188 337.658 636.979 298.399 610.791 271.401C574.664 234.185 529.003 206.031 483.878 181.185C418.556 145.206 348.774 123.291 275.124 111.217C237.118 104.979 193.256 99.7619 156.243 113.556C125.328 125.092 111.495 157.522 130.028 186.321C144.264 208.424 169.968 223.348 192.208 236.067C220.841 252.417 250.521 266.83 281.06 279.253C344.879 305.202 412.539 320.825 481.112 326.929C498.222 328.462 568.352 334.942 549.873 298.479C538.457 275.972 511.329 258.521 490.513 245.748C464.486 229.775 435.638 218.589 406.334 210.253C344.584 192.667 277.998 189.386 214.421 197.023C187.884 200.196 161.078 205.574 135.749 214.233C117.323 220.525 96.6413 231.254 92.7198 252.121C87.9925 277.29 114.073 293.962 132.956 303.615C159.413 317.141 189.307 322.546 215.63 335.964C216.651 336.475 217.054 334.673 216.14 334.216C195.324 323.594 172.305 317.706 150.737 308.886C128.685 299.904 96.9636 285.948 95.0834 258.548C93.0152 228.323 134.191 217.648 156.512 212.082C184.553 205.09 213.078 201.11 241.899 199.363C308.672 195.302 377.702 204.283 440.231 228.431C471.12 240.343 499.833 257.23 524.464 279.387C532.575 286.674 542.621 295.844 545.495 306.815C548.315 317.571 533.811 320.206 526.424 321.336C504.372 324.724 480.816 321.389 458.872 318.754C421.134 314.237 383.96 306.842 347.431 296.328C308.565 285.115 270.8 270.164 234.459 252.363C208.512 239.644 182.405 225.769 159.359 208.236C139.053 192.775 119.875 170.832 130.243 144.077C136.125 128.884 151.167 120.682 165.939 116.245C206.256 104.199 253.287 112.562 293.604 120.467C333.571 128.292 373.189 139.344 411.411 153.461C444.341 165.616 475.525 183.605 505.608 201.46C550.732 228.269 598.785 259.516 628.733 303.642C655.244 342.713 645.091 386.571 604.506 410.315C570.125 430.455 526.747 434.354 487.746 435.161C452.184 435.914 416.407 432.849 381.811 424.325C301.366 404.533 192.155 350.915 193.444 254.218C193.444 253.949 193.095 254.03 193.095 254.272H193.122Z" fill="white"/>
<path d="M458.039 333.867C327.662 332.576 184.419 373.879 89.2012 466.515C74.2134 481.09 55.5996 501.391 57.2649 523.925C58.6616 543.152 80.4986 551.945 96.5339 554.956C121.594 559.689 148.427 555.414 173.138 550.681C199.514 545.626 225.434 538.123 250.978 529.895C335.989 502.494 426.103 467.107 493.172 406.416C523.9 378.612 549.228 341.073 545.468 297.942C540.553 241.526 482.267 232.142 435.665 235.207C364.433 239.886 303.488 284.066 248.748 326.069C213.481 353.12 169.673 381.758 149.34 422.604C143.162 435.027 142.41 450.462 154.309 459.739C167.229 469.796 185.064 470.065 200.669 469.285C246.761 466.999 292.798 450.3 335.747 434.489C407.892 407.976 481.327 381.408 545.925 338.895C575.255 319.588 607.783 294.177 617.613 258.763C628.062 221.09 597.495 187.128 566.687 170.617C493.79 131.519 375.768 166.906 354.522 251.987C343.536 296.032 366.904 341.638 394.516 374.471C423.014 408.325 465.56 437.124 511.302 436.049C538.243 435.403 561.449 420.829 578.21 400.473C578.881 399.64 577.807 398.026 577.028 398.967C498.034 492.921 362.634 374.901 355.328 281.754C351.299 230.448 390.487 190.193 434.913 172.042C480.118 153.569 536.846 154.295 577.431 183.39C594.997 195.975 610.63 215.739 613.369 237.681C615.626 255.697 607.031 273.068 596.501 287.024C569.319 323.084 525.699 346.72 486.242 366.753C420.006 400.393 347.565 428.116 276.36 449.467C252.965 456.485 229.006 462.374 204.671 464.74C186.89 466.461 156.216 467.402 149.421 446.106C142.491 424.352 171.311 397.784 184.58 384.689C199.219 370.222 215.335 357.288 231.638 344.73C289.28 300.335 351.675 250.615 426.211 241.392C453.232 238.057 483.852 238.81 508.697 250.938C534.858 263.711 542.057 292.806 539.048 319.722C533.677 367.856 491.238 404.453 454.198 430.456C411.948 460.115 364.487 482.273 316.703 501.365C277.327 517.095 236.93 531.024 195.781 541.431C168.975 548.207 141.255 553.451 113.509 552.967C83.3458 552.456 48.0789 537.182 65.7526 501.338C78.7259 475.066 106.069 454.415 129.007 437.339C160.165 414.16 194.76 395.767 230.591 380.951C302.629 351.13 380.603 337.9 458.254 336.233C459.678 336.206 459.409 333.867 458.093 333.84L458.039 333.867Z" fill="white"/>
<path d="M396.745 147.492C366.555 171.236 368.865 222.327 371.954 256.665C376.654 308.671 390.702 359.385 420.973 402.598C437.116 425.669 458.389 444.923 483.878 457.05C505.796 467.483 533.676 473.776 556.91 464.203C578.505 455.275 587.611 430.563 589.652 408.971C592.526 378.719 578.693 348.844 563.464 323.702C529.325 267.368 478.802 218.508 422.531 184.869C367.522 151.983 305.986 135.122 242.436 130.39C207.572 127.808 149.985 125.55 133.735 164.97C114.745 211.033 165.913 255.509 198.117 278.635C244.612 312.032 299.459 336.556 355.569 347.581C415.44 359.332 483.207 353.362 528.251 308.106C607.353 228.592 509.395 106.538 436.525 65.316C390.004 38.9906 333.33 28.5842 283.397 51.118C236.366 72.3612 206.713 119.903 191.295 167.337C157.855 270.191 185.628 398.188 285.976 452.828C329.408 476.464 379.985 474.663 421.779 448.553C440.769 436.694 460.994 418.839 471.872 398.994C480.172 383.882 485.812 367.345 490.674 350.861C500.908 316.254 511.383 270.944 495.992 236.39C483.395 208.102 446.678 207.026 427.151 228.323C403.057 254.595 397.551 298.264 394.059 332.092C390.595 365.57 388.956 402.759 398.706 435.403C399.216 437.071 401.795 436.936 401.231 435.108C396.128 418.059 396.423 398.537 396.423 380.951C396.423 357.207 397.981 333.49 401.58 310.015C406.898 275.569 420.839 210.011 468.568 218.401C510.899 225.849 498.248 295.844 492.366 323.944C488.283 343.44 482.428 362.693 474.827 381.112C466.339 401.71 452.721 417.333 435.853 431.935C391.508 470.334 332.631 474.528 282.215 445.864C230.752 416.607 197.285 360.273 185.923 303.293C164.865 197.776 218.343 41.6259 345.255 42.9704C405.045 43.6157 460.537 79.3257 499.215 122.646C533.569 161.152 563.249 217.594 546.274 270.11C524.088 338.707 438.647 354.196 376.681 347.258C316.435 340.509 258.552 314.909 208.217 281.781C183.237 265.351 158.795 245.318 143.485 219.208C130.109 196.351 128.282 164.917 151.193 147.734C169.7 133.859 196.533 132.998 218.638 133.133C242.597 133.294 267.013 136.198 290.569 140.366C365.964 153.677 437.143 191.296 491.426 245.13C514.902 268.416 536.685 294.715 554.627 322.519C572.865 350.781 587.718 384.662 582.131 418.92C579.016 438.092 568.03 455.114 549.497 461.944C532.038 468.371 511.625 463.584 494.676 457.83C454.413 444.17 425.27 409.159 405.958 372.75C387.774 338.438 378.534 300.711 374.183 262.339C370.181 227.006 365.346 172.795 396.719 147.519C396.772 147.492 396.719 147.384 396.665 147.438L396.745 147.492Z" fill="white"/>
</g>
<defs>
<clipPath id="clip0_21_2154">
<rect width="651" height="557" fill="white"/>
</clipPath>
</defs>
</svg>
