<svg width="144" height="140" viewBox="0 0 144 140" fill="none" xmlns="http://www.w3.org/2000/svg">
<g clip-path="url(#clip0_2_1201)">
<path d="M27.3899 97.6039C43.6643 114.67 75.9359 121.341 95.0249 105.148C113.97 89.0755 110.934 60.1029 99.0886 40.9564C84.9406 18.0777 52.0422 4.87786 28.1274 21.1891C5.89657 36.3489 4.93764 69.6617 13.4545 92.5807C17.0259 102.199 23.3208 110.614 32.1875 115.941C42.274 121.999 54.5171 122.86 65.9642 121.557C90.2457 118.793 114.385 100.767 119.892 76.3928C131.164 26.4947 54.0468 -5.79852 23.6109 33.0588C9.71828 50.7978 8.97122 77.3498 18.6568 97.1019C23.42 106.812 31.4162 115.123 41.4591 119.396C51.8617 123.816 63.3902 124.45 74.4854 122.794C96.9612 119.439 120.003 105.699 129.291 84.3465C136.267 68.3216 135.821 46.8967 122.517 34.3073C111.966 24.3234 96.3808 21.0899 82.3373 20.07C76.3275 19.6332 70.2804 19.6643 64.2671 20.0421C61.794 20.1961 58.9334 20.1479 56.5319 20.8731C56.3521 20.9276 56.2218 21.0952 56.1448 21.254C55.9741 21.6168 56.2846 22.0142 56.6246 22.115C56.8045 22.1699 56.9418 22.1529 57.1285 22.1398C57.0245 21.7016 56.9135 21.2585 56.8095 20.8204C33.3743 22.8536 19.8521 43.3067 17.3638 65.1149C14.9276 86.4344 22.5349 111.56 43.8174 120.41C64.1352 128.851 90.2846 123.817 106.776 109.505C116.192 101.332 122.649 89.7629 124.63 77.4986C126.539 65.6719 123.631 53.5422 117.61 43.3082C104.042 20.2531 72.401 6.62954 46.7955 16.864C19.0089 27.9751 15.5734 63.6355 18.694 89.1555C20.4436 103.46 26.6514 116.221 39.5163 123.544C52.4217 130.891 68.1654 131.473 82.5049 129.029C88.2234 128.057 94.0374 126.746 99.0826 123.797C103.361 121.293 107.027 117.859 110.275 114.154C118.277 105.035 123.62 93.5181 126.566 81.8393C129.594 69.8186 129.827 56.9003 125.732 45.1096C121.713 33.5492 112.983 24.3532 102.729 17.9159C82.6792 5.33516 55.8845 5.83656 38.9406 23.4075C30.0747 32.6053 25.2857 44.8852 23.5332 57.354C21.6804 70.4956 22.2769 84.757 28.0367 96.9182C39.5375 121.201 74.738 123.79 96.3957 113.022C115.416 103.571 128.939 81.9209 127.334 60.569C126.567 50.3338 121.588 41.085 113.594 34.6753C102.867 26.0699 87.8126 23.4215 74.3935 23.6515C59.8618 23.8983 46.0217 28.482 35.1987 38.2939C24.4271 48.0487 15.9022 61.8914 12.8497 76.1276C10.199 88.5102 12.0276 101.362 22.4377 109.565C31.7099 116.872 44.8644 118.478 56.3025 118.356C69.3828 118.213 82.9061 114.248 93.9384 107.244C107.455 98.6624 114.638 84.4861 112.654 68.5318C110.657 52.4643 101.484 38.27 92.0371 25.5675C91.4536 24.7785 90.0294 25.698 90.6673 26.5569C103.27 43.4985 117.848 68.6499 107.414 90.0364C100.931 103.33 86.1782 110.649 72.4322 114.087C65.5414 115.809 58.5896 116.441 51.495 116.15C39.2818 115.649 25.0777 112.293 17.9552 101.454C9.6943 88.8805 15.0105 71.5365 21.4211 59.4035C28.9359 45.1715 40.8886 32.9403 56.5486 28.1604C81.1145 20.6641 118.918 27.2143 124.848 56.5031C129.402 79.0182 114.072 102.97 93.9043 112.304C80.9366 118.309 65.1235 118.801 51.638 114.352C44.9472 112.146 38.5991 108.316 34.0512 102.901C29.8307 97.8745 27.5143 91.4837 26.0823 85.1691C20.1383 59.0236 28.879 25.0846 55.6024 13.9213C79.2053 4.06554 108.843 17.2296 120.945 38.7387C133.697 61.4022 125.609 92.4371 110.126 111.743C106.69 116.032 102.585 119.898 97.8171 122.685C92.3334 125.89 85.6378 126.996 79.4362 127.922C63.5542 130.291 45.5141 128.047 33.1773 116.972C21.6739 106.65 19.8062 90.0441 19.5722 75.5092C19.3311 60.6779 21.3445 45.3343 29.8861 32.7889C49.1527 4.47604 90.6486 13.3406 110.458 36.0342C118.864 45.6613 123.697 58.1058 123.593 70.8869C123.477 84.6786 116.899 97.6659 107.106 107.184C90.6636 123.17 61.2743 128.256 40.8649 117.455C19.2665 106.033 14.9217 76.0895 20.9465 54.5806C25.7698 37.3863 38.7392 23.7329 57.1295 22.1457C58.1265 22.0573 57.7264 20.7636 56.8105 20.8263C56.9794 20.8162 56.934 20.7995 57.1198 20.8533C57.2781 21.1427 57.4354 21.4261 57.5996 21.7144C57.344 22.2616 56.839 22.158 57.6472 22.0345C58.1886 21.9557 58.732 21.8888 59.2764 21.8278C61.1359 21.6128 63.0003 21.4638 64.8697 21.3443C70.9304 20.9585 77.0339 21.009 83.0853 21.4753C97.6376 22.5859 113.765 26.3603 123.807 37.7113C137.301 52.9542 133.163 78.6236 122.077 93.9109C107.791 113.624 80.6996 124.411 56.7327 121.935C44.7375 120.699 33.8955 115.296 26.1595 106.03C18.4244 96.7703 14.621 84.5722 13.8799 72.6801C13.1457 60.793 15.7224 48.5504 21.8605 38.2796C28.2167 27.638 38.4398 20.6788 50.563 18.2484C74.3896 13.4643 103.39 25.4474 114.71 47.3066C120.943 59.3458 120.586 73.7369 114.999 85.9137C109.389 98.1311 98.6845 107.668 86.8384 113.709C64.9764 124.858 34.4438 124.043 19.9101 102.025C13.1506 91.7873 10.8182 79.1296 10.3418 67.0715C9.75982 52.3521 13.5097 37.5858 23.8585 26.6201C37.3572 12.3068 57.989 13.0346 74.7984 20.3273C86.1647 25.2595 94.9979 35.07 100.656 45.8631C106.432 56.8856 108.989 69.7911 106.697 82.0953C104.302 94.9513 95.8467 106.231 83.4879 110.961C65.0074 118.037 40.9962 111.339 27.5133 97.3949C27.4026 97.2798 27.2999 97.5036 27.3959 97.6029L27.3899 97.6039Z" fill="#32B1A2"/>
</g>
<circle cx="74.0922" cy="71.7167" r="56.703" fill="#32B1A2"/>
<g clip-path="url(#clip1_2_1201)">
<path d="M68.947 55.4634C69.6914 55.4634 70.2948 54.8599 70.2948 54.1155L70.2948 48.3408C70.2236 46.5524 67.6697 46.5538 67.5991 48.3408L67.5991 54.1156C67.5991 54.86 68.2026 55.4634 68.947 55.4634Z" fill="white"/>
<path d="M62.2191 55.0686C62.7453 55.5949 63.5988 55.595 64.1252 55.0686C64.6516 54.5422 64.6516 53.6888 64.1252 53.1624L62.6816 51.7188C62.1553 51.1924 61.3018 51.1924 60.7754 51.7188C60.249 52.2452 60.249 53.0985 60.7754 53.6249L62.2191 55.0686Z" fill="white"/>
<path d="M75.675 55.0686L77.1186 53.6249C77.645 53.0985 77.645 52.2452 77.1186 51.7188C76.5923 51.1924 75.7389 51.1924 75.2125 51.7188L73.7688 53.1624C73.2424 53.6888 73.2424 54.5422 73.7688 55.0686C74.295 55.5949 75.1486 55.595 75.675 55.0686Z" fill="white"/>
<path d="M85.2185 67.5808C85.9882 66.8112 85.9893 65.5641 85.2185 64.7935C84.4487 64.0237 83.2019 64.0228 82.4311 64.7935L77.7376 69.487C76.9691 70.2555 76.9691 71.506 77.7376 72.2744C78.5063 73.0425 79.7569 73.0426 80.5251 72.2744L85.2182 67.5813C85.2183 67.581 85.2184 67.5809 85.2185 67.5808Z" fill="white"/>
<path d="M85.2185 76.9679L88.7387 73.4476C89.5085 72.6779 89.5096 71.431 88.7388 70.6602C87.9692 69.8905 86.7222 69.8894 85.9515 70.6602L82.4311 74.1806C81.6628 74.9489 81.663 76.1993 82.4314 76.9683C83.2009 77.7376 84.4478 77.7385 85.2185 76.9679Z" fill="white"/>
<path d="M92.259 76.5274C91.4962 75.7646 90.2487 75.7499 89.4718 76.5268L87.1251 78.8735C86.3543 79.6445 86.3554 80.8913 87.1247 81.6606C87.9038 82.4407 89.1533 82.4203 89.9115 81.6612L92.2584 79.3142L92.2591 79.3135C93.0184 78.5552 93.038 77.3054 92.259 76.5274Z" fill="white"/>
<path d="M83.8521 80.2672C83.8521 80.2581 83.8528 80.2491 83.8528 80.24C82.5973 80.2494 81.4124 79.7613 80.525 78.8739C79.6079 77.9563 79.1538 76.7489 79.1614 75.544C77.9551 75.5532 76.7495 75.0969 75.8317 74.1807C74.0119 72.3609 74.0119 69.4002 75.8315 67.5807L88.7389 54.6741C89.4747 53.9373 89.5363 52.683 88.7441 51.8909C88.0846 51.2315 86.8333 51.0049 85.9516 51.8867L69.3045 68.5337L69.5246 68.7539C73.2851 72.5143 73.2851 78.633 69.5246 82.3935C68.9982 82.9199 68.1447 82.9198 67.6185 82.3935C67.0921 81.8672 67.0921 81.0137 67.6185 80.4873C70.3278 77.7779 70.3278 73.3694 67.6185 70.66C67.6185 70.66 66.4447 69.4857 66.4447 69.4853C66.2696 69.3099 66.1427 69.0871 66.085 68.8371L64.5426 62.1537C64.0677 60.0955 61.889 58.9024 59.8907 59.6358C59.3594 59.8308 59.0066 60.3372 59.0071 60.9031L59.0256 79.9733L55.5589 83.4385C55.0325 83.9649 55.0325 84.8183 55.5589 85.3447L62.8193 92.6052C63.0721 92.8579 63.4149 92.9999 63.7725 92.9999L77.07 92.9999C78.0389 92.9999 78.9504 92.6221 79.6365 91.9361L86.9194 84.6534C86.2871 84.4234 85.7074 84.0561 85.218 83.5659C84.3374 82.6854 83.8521 81.5137 83.8521 80.2672Z" fill="white"/>
</g>
<defs>
<clipPath id="clip0_2_1201">
<rect width="125.597" height="120.4" fill="white" transform="translate(0 20.7964) rotate(-9.53101)"/>
</clipPath>
<clipPath id="clip1_2_1201">
<rect width="46" height="46" fill="white" transform="translate(51 47)"/>
</clipPath>
</defs>
</svg>
