<svg width="144" height="140" viewBox="0 0 144 140" fill="none" xmlns="http://www.w3.org/2000/svg">
<g clip-path="url(#clip0_102_11)">
<path d="M27.3899 97.6039C43.6643 114.67 75.9359 121.341 95.0249 105.148C113.97 89.0755 110.934 60.1029 99.0886 40.9564C84.9406 18.0777 52.0422 4.87786 28.1274 21.1891C5.89657 36.3489 4.93764 69.6617 13.4545 92.5807C17.0259 102.199 23.3208 110.614 32.1875 115.941C42.274 121.999 54.5171 122.86 65.9642 121.557C90.2457 118.793 114.385 100.767 119.892 76.3928C131.164 26.4947 54.0468 -5.79852 23.6109 33.0588C9.71828 50.7978 8.97122 77.3498 18.6568 97.1019C23.42 106.812 31.4162 115.123 41.4591 119.396C51.8617 123.816 63.3902 124.45 74.4854 122.794C96.9612 119.439 120.003 105.699 129.291 84.3465C136.267 68.3216 135.821 46.8967 122.517 34.3073C111.966 24.3234 96.3808 21.0899 82.3373 20.07C76.3275 19.6332 70.2804 19.6643 64.2671 20.0421C61.794 20.1961 58.9334 20.1479 56.5319 20.8731C56.3521 20.9276 56.2218 21.0952 56.1448 21.254C55.9741 21.6168 56.2846 22.0142 56.6246 22.115C56.8045 22.1699 56.9418 22.1529 57.1285 22.1398C57.0245 21.7016 56.9135 21.2585 56.8095 20.8204C33.3743 22.8536 19.8521 43.3067 17.3638 65.1149C14.9276 86.4344 22.5349 111.56 43.8174 120.41C64.1352 128.851 90.2846 123.817 106.776 109.505C116.192 101.332 122.649 89.7629 124.63 77.4986C126.539 65.6719 123.631 53.5422 117.61 43.3082C104.042 20.2531 72.401 6.62954 46.7955 16.864C19.0089 27.9751 15.5734 63.6355 18.694 89.1555C20.4436 103.46 26.6514 116.221 39.5163 123.544C52.4217 130.891 68.1654 131.473 82.5049 129.029C88.2234 128.057 94.0374 126.746 99.0826 123.797C103.361 121.293 107.027 117.859 110.275 114.154C118.277 105.035 123.62 93.5181 126.566 81.8393C129.594 69.8186 129.827 56.9003 125.732 45.1096C121.713 33.5492 112.983 24.3532 102.729 17.9159C82.6792 5.33516 55.8845 5.83656 38.9406 23.4075C30.0747 32.6053 25.2857 44.8852 23.5332 57.354C21.6804 70.4956 22.2769 84.757 28.0367 96.9182C39.5375 121.201 74.738 123.79 96.3957 113.022C115.416 103.571 128.939 81.9209 127.334 60.569C126.567 50.3338 121.588 41.085 113.594 34.6753C102.867 26.0699 87.8126 23.4215 74.3935 23.6515C59.8618 23.8983 46.0217 28.482 35.1987 38.2939C24.4271 48.0487 15.9022 61.8914 12.8497 76.1276C10.199 88.5102 12.0276 101.362 22.4377 109.565C31.7099 116.872 44.8644 118.478 56.3025 118.356C69.3828 118.213 82.9061 114.248 93.9384 107.244C107.455 98.6624 114.638 84.4861 112.654 68.5318C110.657 52.4643 101.484 38.27 92.0371 25.5675C91.4536 24.7785 90.0294 25.698 90.6673 26.5569C103.27 43.4985 117.848 68.6499 107.414 90.0364C100.931 103.33 86.1782 110.649 72.4322 114.087C65.5414 115.809 58.5896 116.441 51.495 116.15C39.2818 115.649 25.0777 112.293 17.9552 101.454C9.6943 88.8805 15.0105 71.5365 21.4211 59.4035C28.9359 45.1715 40.8886 32.9403 56.5486 28.1604C81.1145 20.6641 118.918 27.2143 124.848 56.5031C129.402 79.0182 114.072 102.97 93.9043 112.304C80.9366 118.309 65.1235 118.801 51.638 114.352C44.9472 112.146 38.5991 108.316 34.0512 102.901C29.8307 97.8745 27.5143 91.4837 26.0823 85.1691C20.1383 59.0236 28.879 25.0846 55.6024 13.9213C79.2053 4.06554 108.843 17.2296 120.945 38.7387C133.697 61.4022 125.609 92.4371 110.126 111.743C106.69 116.032 102.585 119.898 97.8171 122.685C92.3334 125.89 85.6378 126.996 79.4362 127.922C63.5542 130.291 45.5141 128.047 33.1773 116.972C21.6739 106.65 19.8062 90.0441 19.5722 75.5092C19.3311 60.6779 21.3445 45.3343 29.8861 32.7889C49.1527 4.47604 90.6486 13.3406 110.458 36.0342C118.864 45.6613 123.697 58.1058 123.593 70.8869C123.477 84.6786 116.899 97.6659 107.106 107.184C90.6636 123.17 61.2743 128.256 40.8649 117.455C19.2665 106.033 14.9217 76.0895 20.9465 54.5806C25.7698 37.3863 38.7392 23.7329 57.1295 22.1457C58.1265 22.0573 57.7264 20.7636 56.8105 20.8263C56.9794 20.8162 56.934 20.7995 57.1198 20.8533C57.2781 21.1427 57.4354 21.4261 57.5996 21.7144C57.344 22.2616 56.839 22.158 57.6472 22.0345C58.1886 21.9557 58.732 21.8888 59.2764 21.8278C61.1359 21.6128 63.0003 21.4638 64.8697 21.3443C70.9304 20.9585 77.0339 21.009 83.0853 21.4753C97.6376 22.5859 113.765 26.3603 123.807 37.7113C137.301 52.9542 133.163 78.6236 122.077 93.9109C107.791 113.624 80.6996 124.411 56.7327 121.935C44.7375 120.699 33.8955 115.296 26.1595 106.03C18.4244 96.7703 14.621 84.5722 13.8799 72.6801C13.1457 60.793 15.7224 48.5504 21.8605 38.2796C28.2167 27.638 38.4398 20.6788 50.563 18.2484C74.3896 13.4643 103.39 25.4474 114.71 47.3066C120.943 59.3458 120.586 73.7369 114.999 85.9137C109.389 98.1311 98.6845 107.668 86.8384 113.709C64.9764 124.858 34.4438 124.043 19.9101 102.025C13.1506 91.7873 10.8182 79.1296 10.3418 67.0715C9.75982 52.3521 13.5097 37.5858 23.8585 26.6201C37.3572 12.3068 57.989 13.0346 74.7984 20.3273C86.1647 25.2595 94.9979 35.07 100.656 45.8631C106.432 56.8856 108.989 69.7911 106.697 82.0953C104.302 94.9513 95.8467 106.231 83.4879 110.961C65.0074 118.037 40.9962 111.339 27.5133 97.3949C27.4026 97.2798 27.2999 97.5036 27.3959 97.6029L27.3899 97.6039Z" fill="#32B1A2"/>
</g>
<circle cx="74.0922" cy="71.7167" r="56.703" fill="#32B1A2"/>
<g clip-path="url(#clip1_102_11)">
<path fill-rule="evenodd" clip-rule="evenodd" d="M74.2351 60.2586C75.2926 60.5103 76.3078 60.912 77.2509 61.45L73.7801 64.9208C73.0861 64.6852 72.3423 64.5573 71.5684 64.5573C67.7716 64.5573 64.6943 67.6346 64.6943 71.4315C64.6943 75.2283 67.7716 78.3056 71.5684 78.3056C75.3653 78.3056 78.4426 75.2283 78.4426 71.4315C78.4426 70.6577 78.3146 69.9139 78.0791 69.2199L81.5503 65.7486C82.0884 66.6919 82.49 67.7074 82.7417 68.765L84.9604 69.619L84.9604 73.2438L82.7412 74.098C82.4597 75.2804 81.9909 76.4097 81.3537 77.4447L82.3195 79.6195L79.7564 82.1827L77.5823 81.2171C76.5472 81.8545 75.4175 82.3234 74.2347 82.6047L73.3807 84.8234L69.756 84.8234L68.9018 82.6042C67.7193 82.3228 66.5901 81.854 65.5551 81.2167L63.3803 82.1826L60.8171 79.6195L61.7827 77.4454C61.1453 76.4103 60.6765 75.2804 60.395 74.0978L58.1763 73.2438L58.1763 69.619L60.3954 68.7649C60.6767 67.5824 61.1455 66.4529 61.7829 65.4179L60.8172 63.2434L63.3803 60.6803L65.5551 61.6462C66.5901 61.009 67.7194 60.5402 68.9018 60.2587L69.756 58.0395L73.3807 58.0395L74.2351 60.2586ZM94.4419 48.5581C93.9281 48.0443 93.0874 48.0443 92.5736 48.5581L90.7514 50.3803L89.7467 45.7188L81.7486 53.7168L82.7532 58.3784L71.5 69.6316C70.9862 70.1454 70.9862 70.9862 71.5 71.5C72.0138 72.0138 72.8545 72.0138 73.3684 71.5L84.6216 60.2467L89.2832 61.2513L97.2812 53.2532L92.6197 52.2486L94.4418 50.4264C94.9557 49.9127 94.9557 49.0719 94.4419 48.5581ZM72.4279 48.9489L72.4279 45.7188C72.4279 45.2442 72.0431 44.8594 71.5685 44.8594C71.0939 44.8594 70.7092 45.2442 70.7092 45.7188L70.7092 48.9508C58.9672 49.3919 49.529 58.8302 49.0878 70.5721L45.7187 70.5721C45.2442 70.5721 44.8594 70.9569 44.8594 71.4315C44.8594 71.9061 45.2442 72.2908 45.7187 72.2908L49.0878 72.2908C49.5274 83.9869 58.8938 93.3978 70.5721 93.9069L70.5721 97.2813C70.5721 97.7558 70.9569 98.1406 71.4315 98.1406C71.9061 98.1406 72.2908 97.7558 72.2908 97.2813L72.2908 93.9173C84.0505 93.5463 93.5328 84.1517 94.044 72.4279L97.2812 72.4279C97.7558 72.4279 98.1406 72.0431 98.1406 71.5685C98.1406 71.0939 97.7558 70.7092 97.2812 70.7092L94.0556 70.7092C93.949 67.3332 93.0979 64.1453 91.6623 61.3028L89.8363 63.1288L86.0905 62.3216C87.7497 64.9609 88.7103 68.0838 88.7103 71.4315C88.7103 80.8987 81.0356 88.5733 71.5684 88.5733C62.1012 88.5733 54.4267 80.8986 54.4267 71.4315C54.4267 61.9643 62.1013 54.2896 71.5685 54.2896C74.9162 54.2896 78.0394 55.2501 80.6786 56.9095L79.8713 53.1637L81.6973 51.3377C78.8934 49.9213 75.7532 49.074 72.4279 48.9489Z" fill="white"/>
</g>
<defs>
<clipPath id="clip0_102_11">
<rect width="125.597" height="120.4" fill="white" transform="translate(0 20.7964) rotate(-9.53101)"/>
</clipPath>
<clipPath id="clip1_102_11">
<rect width="55" height="55" fill="white" transform="translate(44 44)"/>
</clipPath>
</defs>
</svg>
