<svg width="49" height="49" viewBox="0 0 49 49" fill="none" xmlns="http://www.w3.org/2000/svg">
<circle cx="24.5" cy="24.5" r="24.5" fill="#32B1A2"/>
<g clip-path="url(#clip0_102_15)">
<path d="M31.7287 34.047C32.4495 34.047 33.0359 33.4606 33.0359 32.7399C33.0359 32.0191 32.4495 31.4327 31.7287 31.4327C31.008 31.4327 30.4216 32.0191 30.4216 32.7399C30.4216 33.4606 31.008 34.047 31.7287 34.047Z" fill="white"/>
<path d="M26.4685 32.7399C26.4685 35.6403 28.8282 38.0001 31.7287 38.0001C34.6291 38.0001 36.9888 35.6403 36.9888 32.7399C36.9888 29.8394 34.6291 27.4797 31.7287 27.4797C28.8282 27.4797 26.4685 29.8394 26.4685 32.7399ZM28.9568 32.7399C28.9568 32.4972 28.9884 32.2619 29.0472 32.0374L28.1127 31.4979L28.8452 30.2294L29.7811 30.7698C30.1147 30.44 30.5313 30.1945 30.9964 30.0669V28.9875H32.4611V30.0669C32.9261 30.1945 33.3425 30.4399 33.676 30.7695L34.6119 30.2293L35.3441 31.4979L34.4101 32.0371C34.469 32.2616 34.5006 32.4971 34.5006 32.7398C34.5006 32.9825 34.469 33.2179 34.4102 33.4424L35.3442 33.9815L34.6119 35.2501L33.6762 34.71C33.3427 35.0397 32.9261 35.2852 32.4611 35.4128V36.492H30.9964V35.4129C30.5312 35.2853 30.1145 35.0397 29.7809 34.7098L28.8452 35.2501L28.1127 33.9816L29.0471 33.4421C28.9883 33.2177 28.9568 32.9824 28.9568 32.7399Z" fill="white"/>
<path d="M25.7559 15.7668L25.9396 13H21.1575L21.3412 15.7668H25.7559Z" fill="white"/>
<path d="M25.0038 32.7399C25.0038 32.5292 25.0141 32.3208 25.0331 32.115H21.8945V30.6502H25.3367C25.5082 30.1268 25.7423 29.6316 26.0302 29.1733H21.8945V27.7085H27.2721C28.3088 26.7891 29.6304 26.1845 31.086 26.0459V14.4705H27.3099L27.1266 17.2315H19.9704L19.7871 14.4705H16.011V35.0567H25.4152C25.1492 34.3341 25.0038 33.5537 25.0038 32.7399ZM21.8945 18.8832H28.1442V20.3479H21.8945V18.8832ZM21.8945 21.8249H28.1442V23.2897H21.8945V21.8249ZM21.8945 24.7667H28.1442V26.2315H21.8945V24.7667ZM20.4175 32.115H18.9527V30.6502H20.4175V32.115ZM20.4175 29.1732H18.9527V27.7084H20.4175V29.1732ZM20.4175 26.2315H18.9527V24.7667H20.4175V26.2315ZM20.4175 23.2897H18.9527V21.8249H20.4175V23.2897ZM20.4175 20.3479H18.9527V18.8832H20.4175V20.3479Z" fill="white"/>
</g>
<defs>
<clipPath id="clip0_102_15">
<rect width="25" height="25" fill="white" transform="translate(14 13)"/>
</clipPath>
</defs>
</svg>
