<svg width="49" height="49" viewBox="0 0 49 49" fill="none" xmlns="http://www.w3.org/2000/svg">
<circle cx="24.5" cy="24.5" r="24.5" fill="#32B1A2"/>
<g clip-path="url(#clip0_2_1276)">
<path d="M28.3 15H16.9C16.33 15 15.95 15.38 15.95 15.95V17.85C15.38 17.85 15 18.23 15 18.8C15 19.37 15.38 19.75 15.95 19.75V29.25C15.38 29.25 15 29.63 15 30.2C15 30.77 15.38 31.15 15.95 31.15V33.05C15.95 33.62 16.33 34 16.9 34H28.3C28.87 34 29.25 33.62 29.25 33.05V15.95C29.25 15.38 28.87 15 28.3 15ZM22.6 27.35H18.8C18.23 27.35 17.85 26.97 17.85 26.4C17.85 25.83 18.23 25.45 18.8 25.45H22.6C23.17 25.45 23.55 25.83 23.55 26.4C23.55 26.97 23.17 27.35 22.6 27.35ZM26.4 23.55H18.8C18.23 23.55 17.85 23.17 17.85 22.6C17.85 22.03 18.23 21.65 18.8 21.65H26.4C26.97 21.65 27.35 22.03 27.35 22.6C27.35 23.17 26.97 23.55 26.4 23.55ZM26.4 19.75H18.8C18.23 19.75 17.85 19.37 17.85 18.8C17.85 18.23 18.23 17.85 18.8 17.85H26.4C26.97 17.85 27.35 18.23 27.35 18.8C27.35 19.37 26.97 19.75 26.4 19.75Z" fill="white"/>
<path d="M33.05 15H32.1C31.53 15 31.15 15.38 31.15 15.95V29.25H34V15.95C34 15.38 33.62 15 33.05 15Z" fill="white"/>
<path d="M32.575 34L34 31.15H31.15L32.575 34Z" fill="white"/>
</g>
<defs>
<clipPath id="clip0_2_1276">
<rect width="19" height="19" fill="white" transform="translate(15 15)"/>
</clipPath>
</defs>
</svg>
