<svg width="361" height="123" viewBox="0 0 361 123" fill="none" xmlns="http://www.w3.org/2000/svg">
<g style="mix-blend-mode:multiply" opacity="0.21">
<path opacity="0.02" d="M324.65 7.20642H35.3859C16.0424 7.20642 0.304008 22.8376 0.304008 42.0524V87.6889C0.304008 106.902 16.0408 122.533 35.3859 122.533H324.65C343.993 122.533 359.732 106.902 359.732 87.6889V42.0524C359.732 22.8392 343.995 7.20801 324.65 7.20801V7.20642Z" fill="#F9F9FA"/>
<path opacity="0.05" d="M324.405 7.02661H35.631C16.3193 7.02661 0.608015 22.6339 0.608015 41.8185V87.3849C0.608015 106.569 16.3193 122.177 35.6294 122.177H324.405C343.717 122.177 359.426 106.569 359.426 87.3849V41.8185C359.426 22.6339 343.715 7.02661 324.405 7.02661Z" fill="#F3F4F4"/>
<path opacity="0.07" d="M324.16 6.8468H35.8761C16.5979 6.8468 0.913614 22.4303 0.913614 41.5846V87.081C0.913614 106.235 16.5979 121.819 35.8761 121.819H324.16C343.438 121.819 359.122 106.235 359.122 87.081V41.5846C359.122 22.4303 343.438 6.8468 324.16 6.8468Z" fill="#EDEEEF"/>
<path opacity="0.1" d="M323.915 6.66699H36.1212C16.8748 6.66699 1.21762 22.225 1.21762 41.3506V86.7771C1.21762 105.901 16.8748 121.461 36.1212 121.461H323.915C343.161 121.461 358.818 105.901 358.818 86.7771V41.3506C358.818 22.2266 343.161 6.66699 323.915 6.66699Z" fill="#E6E8E9"/>
<path opacity="0.12" d="M323.67 6.48718H36.3647C17.1534 6.48718 1.52163 22.0213 1.52163 41.1167V86.4716C1.52163 105.567 17.1518 121.101 36.3647 121.101H323.67C342.882 121.101 358.513 105.565 358.513 86.4716V41.1167C358.513 22.0213 342.882 6.48718 323.67 6.48718Z" fill="#E0E3E4"/>
<path opacity="0.15" d="M323.424 6.30579H36.6098C17.4303 6.30579 1.82564 21.8176 1.82564 40.8828V86.1676C1.82564 105.233 17.4303 120.745 36.6098 120.745H323.424C342.604 120.745 358.209 105.234 358.209 86.1676V40.8828C358.209 21.8176 342.604 6.30579 323.424 6.30579Z" fill="#DADDDF"/>
<path opacity="0.17" d="M323.179 6.12598H36.855C17.7073 6.12598 2.12965 21.6124 2.12965 40.6489V85.8637C2.12965 104.9 17.7073 120.387 36.855 120.387H323.179C342.327 120.387 357.905 104.9 357.905 85.8637V40.6489C357.905 21.6124 342.327 6.12598 323.179 6.12598Z" fill="#D4D7D9"/>
<path opacity="0.2" d="M322.934 5.94611H37.1001C17.9858 5.94611 2.43525 21.4086 2.43525 40.4149V85.5597C2.43525 104.566 17.9858 120.029 37.1001 120.029H322.934C342.048 120.029 357.599 104.566 357.599 85.5597V40.4149C357.599 21.4086 342.048 5.94611 322.934 5.94611Z" fill="#CED2D4"/>
<path opacity="0.22" d="M322.689 5.7663H37.3452C18.2627 5.7663 2.73925 21.2049 2.73925 40.181V85.2558C2.73925 104.232 18.2643 119.671 37.3452 119.671H322.689C341.772 119.671 357.295 104.232 357.295 85.2558V40.181C357.295 21.2049 341.772 5.7663 322.689 5.7663Z" fill="#C8CCCE"/>
<path opacity="0.24" d="M322.445 5.58649H37.5903C18.5413 5.58649 3.04326 21.0013 3.04326 39.9487V84.9519C3.04326 103.899 18.5413 119.314 37.5903 119.314H322.445C341.495 119.314 356.993 103.899 356.993 84.9519V39.9471C356.993 20.9997 341.495 5.5849 322.445 5.5849V5.58649Z" fill="#C2C6C9"/>
<path opacity="0.27" d="M322.2 5.40509H37.8354C18.8198 5.40509 3.34886 20.796 3.34886 39.7132V84.6463C3.34886 103.564 18.8198 118.954 37.8354 118.954H322.2C341.216 118.954 356.687 103.564 356.687 84.6463V39.7132C356.687 20.796 341.216 5.40509 322.2 5.40509Z" fill="#BBC1C4"/>
<path opacity="0.29" d="M321.955 5.22528H38.0805C19.0968 5.22528 3.65287 20.5923 3.65287 39.4793V84.3424C3.65287 103.231 19.0968 118.596 38.0805 118.596H321.955C340.939 118.596 356.383 103.229 356.383 84.3424V39.4793C356.383 20.5907 340.939 5.22528 321.955 5.22528Z" fill="#B5BBBE"/>
<path opacity="0.32" d="M321.71 5.04547H38.3257C19.3737 5.04547 3.95687 20.3886 3.95687 39.247V84.0401C3.95687 102.898 19.3753 118.24 38.3257 118.24H321.71C340.66 118.24 356.079 102.897 356.079 84.0401V39.247C356.079 20.3886 340.662 5.04706 321.71 5.04706V5.04547Z" fill="#AFB5B9"/>
<path opacity="0.34" d="M321.465 4.86566H38.5692C19.6523 4.86566 4.26088 20.1834 4.26088 39.0131V83.7361C4.26088 102.564 19.6523 117.884 38.5692 117.884H321.465C340.384 117.884 355.773 102.566 355.773 83.7361V39.0131C355.773 20.185 340.382 4.86566 321.465 4.86566Z" fill="#A9B0B4"/>
<path opacity="0.37" d="M321.22 4.68585H38.8143C19.9292 4.68585 4.56489 19.9797 4.56489 38.7791V83.4306C4.56489 102.23 19.9292 117.524 38.8143 117.524H321.22C340.105 117.524 355.469 102.23 355.469 83.4306V38.7791C355.469 19.9797 340.105 4.68585 321.22 4.68585Z" fill="#A3AAAE"/>
<path opacity="0.39" d="M320.975 4.50604H39.0594C20.2078 4.50604 4.8689 19.776 4.8689 38.5452V83.1267C4.8689 101.896 20.2062 117.166 39.0594 117.166H320.975C339.828 117.166 355.165 101.896 355.165 83.1267V38.5452C355.165 19.776 339.828 4.50604 320.975 4.50604Z" fill="#9DA4A9"/>
<path opacity="0.41" d="M320.73 4.32465H39.3045C20.4847 4.32465 5.1745 19.5708 5.1745 38.3097V82.8212C5.1745 101.562 20.4863 116.806 39.3045 116.806H320.73C339.55 116.806 354.86 101.56 354.86 82.8212V38.3113C354.86 19.5708 339.55 4.32624 320.73 4.32624V4.32465Z" fill="#979FA3"/>
<path opacity="0.44" d="M320.486 4.14478H39.5496C20.7632 4.14478 5.4785 19.367 5.4785 38.0773V82.5188C5.4785 101.229 20.7632 116.451 39.5496 116.451H320.486C339.273 116.451 354.557 101.229 354.557 82.5188V38.0773C354.557 19.367 339.273 4.14478 320.486 4.14478Z" fill="#90999E"/>
<path opacity="0.46" d="M320.241 3.96497H39.7948C21.0402 3.96497 5.78251 19.1633 5.78251 37.8434V82.2148C5.78251 100.895 21.0402 116.093 39.7948 116.093H320.241C338.996 116.093 354.253 100.895 354.253 82.2148V37.8434C354.253 19.1633 338.996 3.96497 320.241 3.96497Z" fill="#8A9399"/>
<path opacity="0.49" d="M319.996 3.78516H40.0399C21.3187 3.78516 6.08652 18.9597 6.08652 37.6095V81.9093C6.08652 100.561 21.3171 115.734 40.0399 115.734H319.996C338.717 115.734 353.948 100.559 353.948 81.9093V37.6095C353.948 18.9581 338.717 3.78516 319.996 3.78516Z" fill="#848E93"/>
<path opacity="0.51" d="M319.751 3.60535H40.285C21.5957 3.60535 6.39212 18.7544 6.39212 37.3772V81.607C6.39212 100.228 21.5973 115.379 40.285 115.379H319.751C338.44 115.379 353.644 100.23 353.644 81.607V37.3756C353.644 18.7544 338.44 3.60376 319.751 3.60376V3.60535Z" fill="#7E888E"/>
<path opacity="0.54" d="M319.506 3.42395H40.5301C21.8742 3.42395 6.69613 18.5491 6.69613 37.1417V81.3015C6.69613 99.8924 21.8742 115.019 40.5301 115.019H319.506C338.162 115.019 353.34 99.894 353.34 81.3015V37.1417C353.34 18.5491 338.162 3.42395 319.506 3.42395Z" fill="#788388"/>
<path opacity="0.56" d="M319.261 3.24414H40.7736C22.1512 3.24414 6.99854 18.3454 6.99854 36.9078V80.9975C6.99854 99.5599 22.1496 114.661 40.7736 114.661H319.261C337.883 114.661 353.034 99.5599 353.034 80.9975V36.9078C353.034 18.3454 337.883 3.24414 319.261 3.24414Z" fill="#727D83"/>
<path opacity="0.59" d="M319.016 3.06433H41.0188C22.4281 3.06433 7.30414 18.1418 7.30414 36.6739V80.6936C7.30414 99.2257 22.4281 114.303 41.0188 114.303H319.016C337.606 114.303 352.73 99.2257 352.73 80.6936V36.6739C352.73 18.1418 337.606 3.06433 319.016 3.06433Z" fill="#6B777E"/>
<path opacity="0.61" d="M318.77 2.88453H41.2639C22.7067 2.88453 7.60815 17.9381 7.60815 36.4416V80.3897C7.60815 98.8931 22.7067 113.947 41.2639 113.947H318.77C337.328 113.947 352.426 98.8931 352.426 80.3897V36.44C352.426 17.9365 337.329 2.88293 318.77 2.88293V2.88453Z" fill="#657278"/>
<path opacity="0.63" d="M318.525 2.70471H41.509C22.9836 2.70471 7.91216 17.7344 7.91216 36.2076V80.0857C7.91216 98.559 22.9836 113.589 41.509 113.589H318.525C337.051 113.589 352.121 98.559 352.121 80.0857V36.2076C352.121 17.7344 337.049 2.70471 318.525 2.70471Z" fill="#5F6C73"/>
<path opacity="0.66" d="M318.282 2.5249H41.7541C23.2622 2.5249 8.21776 17.5307 8.21776 35.9737V79.7818C8.21776 98.2248 23.2622 113.231 41.7541 113.231H318.282C336.774 113.231 351.818 98.2248 351.818 79.7818V35.9737C351.818 17.5291 336.774 2.5249 318.282 2.5249Z" fill="#59666D"/>
<path opacity="0.68" d="M318.037 2.34344H41.9992C23.5391 2.34344 8.52177 17.3238 8.52177 35.7382V79.4778C8.52177 97.8922 23.5391 112.873 41.9992 112.873H318.037C336.497 112.873 351.514 97.8922 351.514 79.4778V35.7397C351.514 17.3254 336.497 2.34504 318.037 2.34504V2.34344Z" fill="#536168"/>
<path opacity="0.71" d="M317.792 2.16364H42.2443C23.8177 2.16364 8.82577 17.1201 8.82577 35.5058V79.1723C8.82577 97.5564 23.8177 112.515 42.2443 112.515H317.792C336.218 112.515 351.208 97.558 351.208 79.1723V35.5058C351.208 17.1217 336.217 2.16364 317.792 2.16364Z" fill="#4D5B63"/>
<path opacity="0.73" d="M317.546 1.98383H42.4895C24.0962 1.98383 9.13137 16.9165 9.13137 35.2719V78.8684C9.13137 97.2239 24.0962 112.156 42.4895 112.156H317.546C335.94 112.156 350.904 97.2239 350.904 78.8684V35.2719C350.904 16.9165 335.94 1.98383 317.546 1.98383Z" fill="#47555D"/>
<path opacity="0.76" d="M317.301 1.80402H42.7346C24.3731 1.80402 9.43538 16.7128 9.43538 35.038V78.5644C9.43538 96.8897 24.3731 111.798 42.7346 111.798H317.301C335.663 111.798 350.6 96.8897 350.6 78.5644V35.038C350.6 16.7128 335.663 1.80402 317.301 1.80402Z" fill="#405058"/>
<path opacity="0.78" d="M317.056 1.62421H42.9781C24.6501 1.62421 9.7378 16.5091 9.7378 34.8041V78.2605C9.7378 96.5555 24.6485 111.44 42.9781 111.44H317.056C335.384 111.44 350.295 96.5555 350.295 78.2605V34.8041C350.295 16.5091 335.384 1.62421 317.056 1.62421Z" fill="#3A4A53"/>
<path opacity="0.8" d="M316.811 1.44281H43.2232C24.927 1.44281 10.0434 16.3038 10.0434 34.5702V77.9566C10.0434 96.2229 24.9286 111.084 43.2232 111.084H316.811C335.107 111.084 349.991 96.2229 349.991 77.9566V34.5702C349.991 16.3038 335.106 1.44281 316.811 1.44281Z" fill="#34444D"/>
<path opacity="0.83" d="M316.566 1.263H43.4683C25.2056 1.263 10.3474 16.1001 10.3474 34.3363V77.6526C10.3474 95.8888 25.2056 110.726 43.4683 110.726H316.566C334.829 110.726 349.687 95.8888 349.687 77.6526V34.3363C349.687 16.1001 334.829 1.263 316.566 1.263Z" fill="#2E3F48"/>
<path opacity="0.85" d="M316.321 1.08319H43.7134C25.4841 1.08319 10.6514 15.8949 10.6514 34.1024V77.3487C10.6514 95.5562 25.4825 110.368 43.7134 110.368H316.321C334.55 110.368 349.383 95.5562 349.383 77.3487V34.1024C349.383 15.8949 334.552 1.08319 316.321 1.08319Z" fill="#283942"/>
<path opacity="0.88" d="M316.077 0.903381H43.9586C25.7611 0.903381 10.957 15.6912 10.957 33.8685V77.0448C10.957 95.2221 25.7611 110.01 43.9586 110.01H316.077C334.275 110.01 349.079 95.2221 349.079 77.0448V33.8685C349.079 15.6912 334.275 0.903381 316.077 0.903381Z" fill="#22333D"/>
<path opacity="0.9" d="M315.832 0.723515H44.2037C26.0396 0.723515 11.261 15.4875 11.261 33.6361V76.7408C11.261 94.8878 26.0396 109.653 44.2037 109.653H315.832C333.996 109.653 348.775 94.8894 348.775 76.7408V33.6345C348.775 15.4875 333.996 0.721924 315.832 0.721924V0.723515Z" fill="#1C2E38"/>
<path opacity="0.93" d="M315.587 0.543706H44.4488C26.3166 0.543706 11.565 15.2838 11.565 33.4022V76.4353C11.565 94.5537 26.3166 109.294 44.4488 109.294H315.587C333.719 109.294 348.471 94.5537 348.471 76.4353V33.4006C348.471 15.2822 333.719 0.542114 315.587 0.542114V0.543706Z" fill="#152832"/>
<path opacity="0.95" d="M315.342 0.362305H44.6939C26.5951 0.362305 11.8706 15.0785 11.8706 33.1667V76.1314C11.8706 94.2195 26.5951 108.936 44.6939 108.936H315.342C333.441 108.936 348.165 94.2195 348.165 76.1314V33.1682C348.165 15.0801 333.441 0.363896 315.342 0.363896V0.362305Z" fill="#0F222D"/>
<path opacity="0.98" d="M315.097 0.182495H44.939C26.8721 0.182495 12.1746 14.8748 12.1746 32.9343V75.8274C12.1746 93.8869 26.8721 108.578 44.939 108.578H315.097C333.164 108.578 347.861 93.8853 347.861 75.8274V32.9343C347.861 14.8748 333.164 0.184086 315.097 0.184086V0.182495Z" fill="#091D27"/>
<path d="M314.852 0.00268555H45.1841C27.1214 0.00268555 12.4786 14.642 12.4786 32.7004V75.5235C12.4786 93.582 27.1214 108.221 45.1841 108.221H314.852C332.914 108.221 347.557 93.582 347.557 75.5235V32.7004C347.557 14.642 332.914 0.00268555 314.852 0.00268555Z" fill="#031722"/>
</g>
<path d="M314.852 0.00268555H45.1841C27.1214 0.00268555 12.4786 14.642 12.4786 32.7004V75.5235C12.4786 93.582 27.1214 108.221 45.1841 108.221H314.852C332.914 108.221 347.557 93.582 347.557 75.5235V32.7004C347.557 14.642 332.914 0.00268555 314.852 0.00268555Z" fill="url(#paint0_linear_1_114)"/>
<path d="M314.852 1.11658H45.1841C27.7367 1.11658 13.5928 15.2571 13.5928 32.7004V75.5235C13.5928 92.9668 27.7367 107.107 45.1841 107.107H314.852C332.299 107.107 346.443 92.9668 346.443 75.5235V32.7004C346.443 15.2571 332.299 1.11658 314.852 1.11658Z" fill="url(#paint1_linear_1_114)"/>
<path d="M92.4709 45.0631L55.9119 23.9611C54.6482 23.2323 53.2188 23.3707 52.1508 24.0725L83.0848 54.0714L92.4709 45.0631Z" fill="url(#paint2_linear_1_114)"/>
<path d="M52.1508 24.1584C51.2006 24.7822 50.5401 25.8499 50.5401 27.1484V81.2473C50.5401 82.436 51.0956 83.4322 51.9185 84.0703L83.0848 54.1573L52.1508 24.1584Z" fill="url(#paint3_linear_1_114)"/>
<path d="M51.9185 83.9844C53.004 84.8262 54.5543 85.0458 55.9119 84.2629L92.4629 63.1656L83.0864 54.0714L51.9201 83.9844H51.9185Z" fill="url(#paint4_linear_1_114)"/>
<path d="M102.774 51.0113L92.4709 45.0647L83.0848 54.073L92.4613 63.1672L102.774 57.2158C105.161 55.8377 105.161 52.3926 102.774 51.0145V51.0113Z" fill="url(#paint5_linear_1_114)"/>
<path d="M139.848 37.955V36.4639L145.233 36.456V41.171C144.407 41.8298 143.554 42.3246 142.675 42.6572C141.797 42.9898 140.894 43.1553 139.969 43.1553C138.721 43.1553 137.587 42.888 136.566 42.3533C135.546 41.8186 134.776 41.0453 134.255 40.0348C133.735 39.0243 133.475 37.8929 133.475 36.6454C133.475 35.3978 133.733 34.2536 134.252 33.1827C134.769 32.1102 135.514 31.3145 136.485 30.7942C137.456 30.2738 138.575 30.0145 139.84 30.0145C140.759 30.0145 141.59 30.164 142.333 30.4616C143.076 30.7592 143.659 31.1745 144.081 31.706C144.502 32.2375 144.824 32.9313 145.044 33.7858L143.527 34.2011C143.336 33.5535 143.098 33.0459 142.815 32.6751C142.532 32.3059 142.128 32.0083 141.601 31.7872C141.074 31.5644 140.491 31.453 139.85 31.453C139.081 31.453 138.416 31.5707 137.856 31.8047C137.295 32.0386 136.842 32.3457 136.498 32.7276C136.154 33.1095 135.887 33.528 135.696 33.9847C135.373 34.7708 135.21 35.6237 135.21 36.5419C135.21 37.6749 135.406 38.6217 135.796 39.3855C136.186 40.1478 136.754 40.7143 137.499 41.085C138.244 41.4542 139.037 41.6404 139.875 41.6404C140.604 41.6404 141.314 41.5004 142.008 41.2203C142.702 40.9402 143.227 40.6411 143.586 40.3228V37.9566H139.848V37.955Z" fill="#1F2428"/>
<path d="M147.748 42.9387V30.2307H156.938V31.7297H149.43V35.622H156.462V37.113H149.43V41.4381H157.234V42.9371H147.748V42.9387Z" fill="#1F2428"/>
<path d="M162.791 42.9387V31.7297H158.603V30.2307H168.678V31.7297H164.473V42.9387H162.791Z" fill="#1F2428"/>
<path d="M175.303 42.9387V30.2307H176.985V42.9387H175.303Z" fill="#1F2428"/>
<path d="M183.183 42.9387V31.7297H178.995V30.2307H189.07V31.7297H184.865V42.9387H183.183Z" fill="#1F2428"/>
<path d="M194.898 36.7502C194.898 34.6402 195.464 32.99 196.597 31.7965C197.731 30.6031 199.193 30.0063 200.984 30.0063C202.157 30.0063 203.216 30.2864 204.158 30.8465C205.1 31.4067 205.818 32.1896 206.313 33.1921C206.806 34.1946 207.055 35.3324 207.055 36.6038C207.055 37.8753 206.795 39.0448 206.275 40.0633C205.754 41.0801 205.017 41.8503 204.064 42.3738C203.111 42.8973 202.081 43.1583 200.978 43.1583C199.781 43.1583 198.711 42.8687 197.769 42.2911C196.827 41.7134 196.114 40.9242 195.627 39.9248C195.141 38.9255 194.898 37.8673 194.898 36.7518V36.7502ZM196.631 36.7757C196.631 38.3065 197.043 39.5143 197.866 40.3943C198.689 41.2758 199.724 41.7166 200.965 41.7166C202.207 41.7166 203.273 41.2711 204.091 40.3815C204.909 39.492 205.318 38.2285 205.318 36.5927C205.318 35.5583 205.143 34.6545 204.793 33.8843C204.443 33.1125 203.932 32.5142 203.259 32.0893C202.585 31.6645 201.829 31.4528 200.99 31.4528C199.8 31.4528 198.775 31.8618 197.917 32.6797C197.059 33.4976 196.629 34.8629 196.629 36.7757H196.631Z" fill="#1F2428"/>
<path d="M209.203 42.9387V30.2307H210.929L217.606 40.2081V30.2307H219.218V42.9387H217.493L210.816 32.9518V42.9387H209.203Z" fill="#1F2428"/>
<path d="M144.765 62.9316V60.3315L154.153 60.3172V68.5393C152.711 69.6882 151.226 70.5523 149.693 71.1315C148.16 71.7108 146.589 72.0004 144.977 72.0004C142.799 72.0004 140.821 71.5341 139.043 70.6016C137.263 69.6692 135.922 68.3213 135.014 66.5582C134.107 64.795 133.654 62.825 133.654 60.6482C133.654 58.4713 134.104 56.479 135.006 54.6108C135.909 52.7427 137.206 51.3535 138.9 50.4464C140.593 49.5394 142.543 49.0859 144.751 49.0859C146.353 49.0859 147.802 49.3453 149.097 49.864C150.393 50.3828 151.409 51.1052 152.144 52.0329C152.879 52.9607 153.44 54.1684 153.822 55.6611L151.176 56.3867C150.844 55.2585 150.43 54.3721 149.936 53.7261C149.443 53.0816 148.736 52.5644 147.819 52.1762C146.903 51.7879 145.884 51.5937 144.765 51.5937C143.425 51.5937 142.266 51.7974 141.287 52.2064C140.31 52.6138 139.52 53.1516 138.922 53.8168C138.322 54.4819 137.856 55.2123 137.523 56.008C136.958 57.3781 136.676 58.8643 136.676 60.4667C136.676 62.4415 137.017 64.0949 137.696 65.4236C138.376 66.7539 139.368 67.7405 140.666 68.3866C141.967 69.031 143.347 69.3541 144.808 69.3541C146.078 69.3541 147.318 69.1106 148.526 68.6205C149.736 68.132 150.653 67.61 151.278 67.0563V62.9301H144.762L144.765 62.9316Z" fill="#1F2428"/>
<path d="M157.116 63.5968C157.116 60.6243 157.942 58.4235 159.596 56.9913C160.976 55.8027 162.66 55.2075 164.645 55.2075C166.852 55.2075 168.656 55.93 170.056 57.3764C171.457 58.8229 172.157 60.82 172.157 63.3692C172.157 65.4347 171.847 67.0594 171.228 68.2433C170.609 69.4272 169.706 70.347 168.522 71.001C167.338 71.6566 166.045 71.9828 164.645 71.9828C162.397 71.9828 160.58 71.262 159.195 69.8219C157.809 68.3818 157.116 66.3051 157.116 63.5952V63.5968ZM159.913 63.5968C159.913 65.6527 160.362 67.1915 161.258 68.2147C162.154 69.2379 163.284 69.7487 164.645 69.7487C166.006 69.7487 167.118 69.2347 168.016 68.2067C168.914 67.1788 169.361 65.6129 169.361 63.5061C169.361 61.5217 168.91 60.018 168.008 58.9948C167.106 57.9716 165.985 57.4608 164.645 57.4608C163.305 57.4608 162.155 57.97 161.258 58.9868C160.36 60.0052 159.913 61.5408 159.913 63.5968Z" fill="#1F2428"/>
<path d="M174.335 63.5968C174.335 60.6243 175.161 58.4235 176.815 56.9913C178.195 55.8027 179.879 55.2075 181.863 55.2075C184.071 55.2075 185.874 55.93 187.275 57.3764C188.676 58.8229 189.376 60.82 189.376 63.3692C189.376 65.4347 189.066 67.0594 188.447 68.2433C187.827 69.4272 186.925 70.347 185.741 71.001C184.557 71.6566 183.264 71.9828 181.863 71.9828C179.616 71.9828 177.798 71.262 176.414 69.8219C175.027 68.3818 174.335 66.3051 174.335 63.5952V63.5968ZM177.131 63.5968C177.131 65.6527 177.58 67.1915 178.476 68.2147C179.372 69.2379 180.503 69.7487 181.863 69.7487C183.224 69.7487 184.337 69.2347 185.235 68.2067C186.132 67.1788 186.58 65.6129 186.58 63.5061C186.58 61.5217 186.129 60.018 185.227 58.9948C184.324 57.9716 183.204 57.4608 181.863 57.4608C180.523 57.4608 179.374 57.97 178.476 58.9868C177.579 60.0052 177.131 61.5408 177.131 63.5968Z" fill="#1F2428"/>
<path d="M192.068 72.9535L194.713 73.3466C194.824 74.1629 195.132 74.7565 195.635 75.1304C196.309 75.6348 197.233 75.8863 198.401 75.8863C199.66 75.8863 200.632 75.6348 201.318 75.1304C202.004 74.626 202.468 73.921 202.709 73.014C202.851 72.4602 202.916 71.2954 202.905 69.5227C201.716 70.9231 200.234 71.6232 198.461 71.6232C196.254 71.6232 194.546 70.8276 193.336 69.2347C192.127 67.6434 191.522 65.7339 191.522 63.5061C191.522 61.9753 191.799 60.5622 192.353 59.2669C192.906 57.9716 193.71 56.9722 194.764 56.2673C195.818 55.5624 197.054 55.2091 198.476 55.2091C200.37 55.2091 201.933 55.9745 203.162 57.5069V55.5719H205.672V69.4463C205.672 71.9447 205.417 73.7158 204.908 74.7596C204.398 75.8019 203.593 76.6262 202.488 77.2309C201.385 77.8356 200.026 78.1379 198.414 78.1379C196.499 78.1379 194.952 77.7067 193.772 76.8458C192.593 75.9849 192.023 74.6864 192.064 72.9535H192.068ZM194.32 63.3103C194.32 65.4156 194.738 66.9528 195.574 67.9203C196.41 68.8878 197.459 69.3715 198.719 69.3715C199.98 69.3715 201.018 68.891 201.864 67.9282C202.711 66.9655 203.134 65.457 203.134 63.401C203.134 61.3451 202.698 59.9543 201.826 58.9582C200.954 57.9604 199.903 57.4624 198.675 57.4624C197.446 57.4624 196.437 57.9541 195.59 58.9359C194.743 59.9177 194.32 61.3769 194.32 63.3119V63.3103Z" fill="#1F2428"/>
<path d="M209.726 71.6232V49.4662H212.447V71.6232H209.726Z" fill="#1F2428"/>
<path d="M227.654 66.4531L230.466 66.8C230.022 68.4422 229.201 69.7169 228.003 70.6239C226.802 71.5309 225.271 71.9844 223.407 71.9844C221.06 71.9844 219.198 71.262 217.822 69.8155C216.447 68.369 215.76 66.3417 215.76 63.732C215.76 61.1223 216.455 58.9359 217.846 57.4449C219.237 55.9538 221.041 55.2075 223.258 55.2075C225.475 55.2075 227.157 55.9379 228.518 57.3987C229.879 58.8595 230.559 60.9155 230.559 63.5649C230.559 63.7257 230.554 63.9675 230.543 64.2906H218.57C218.671 66.0537 219.17 67.4047 220.067 68.3404C220.963 69.2777 222.082 69.7455 223.423 69.7455C224.421 69.7455 225.273 69.4829 225.978 68.9594C226.683 68.4359 227.243 67.5989 227.656 66.4499L227.654 66.4531ZM218.72 62.0548H227.684C227.563 60.7054 227.221 59.6918 226.656 59.0171C225.789 57.97 224.665 57.4449 223.285 57.4449C222.035 57.4449 220.985 57.8634 220.133 58.6988C219.282 59.5358 218.811 60.6545 218.72 62.0548Z" fill="#1F2428"/>
<path d="M242.832 71.6232V49.4662H251.192C252.662 49.4662 253.786 49.5362 254.563 49.6778C255.651 49.8592 256.563 50.2045 257.299 50.7138C258.034 51.223 258.626 51.9359 259.075 52.8524C259.524 53.769 259.748 54.7763 259.748 55.8759C259.748 57.76 259.148 59.3544 257.95 60.6593C256.75 61.9641 254.583 62.6166 251.449 62.6166H245.766V71.6248H242.832V71.6232ZM245.766 60.0005H251.496C253.39 60.0005 254.736 59.6472 255.532 58.9423C256.328 58.2374 256.726 57.2444 256.726 55.965C256.726 55.0389 256.492 54.2448 256.022 53.5844C255.554 52.9241 254.937 52.488 254.17 52.2764C253.676 52.1459 252.764 52.0807 251.433 52.0807H245.764V60.0005H245.766Z" fill="#1F2428"/>
<path d="M263.075 71.6232V49.4662H265.797V71.6232H263.075Z" fill="#1F2428"/>
<path d="M280.491 69.6421C279.483 70.4982 278.512 71.1029 277.581 71.4561C276.649 71.8094 275.649 71.9844 274.581 71.9844C272.817 71.9844 271.461 71.5532 270.514 70.6923C269.567 69.8314 269.093 68.7302 269.093 67.3904C269.093 66.6043 269.271 65.8866 269.629 65.2374C269.987 64.5881 270.455 64.0662 271.035 63.6731C271.614 63.2801 272.267 62.9825 272.993 62.782C273.527 62.6404 274.333 62.5051 275.412 62.3747C277.608 62.1121 279.227 61.8002 280.265 61.4374C280.274 61.065 280.279 60.8279 280.279 60.7277C280.279 59.6201 280.023 58.8388 279.509 58.3853C278.813 57.7711 277.78 57.4639 276.41 57.4639C275.13 57.4639 274.185 57.6883 273.575 58.1371C272.965 58.5858 272.513 59.3783 272.222 60.5176L269.561 60.1548C269.803 59.017 270.201 58.0973 270.755 57.3971C271.309 56.6969 272.111 56.1575 273.158 55.7804C274.205 55.4032 275.42 55.2139 276.801 55.2139C278.183 55.2139 279.286 55.3746 280.142 55.6976C280.999 56.0207 281.629 56.4264 282.032 56.915C282.434 57.4035 282.718 58.0209 282.878 58.7656C282.969 59.2287 283.014 60.0657 283.014 61.2751V64.9032C283.014 67.4318 283.071 69.0326 283.187 69.7025C283.303 70.3725 283.533 71.0153 283.875 71.6296H281.032C280.75 71.0647 280.569 70.4059 280.488 69.65L280.491 69.6421ZM280.265 63.5665C279.276 63.9691 277.796 64.3128 275.821 64.5945C274.702 64.7552 273.911 64.9366 273.448 65.1387C272.985 65.3408 272.626 65.6352 272.375 66.0235C272.123 66.4117 271.998 66.843 271.998 67.3156C271.998 68.0412 272.272 68.6459 272.822 69.1297C273.371 69.6134 274.175 69.8553 275.234 69.8553C276.292 69.8553 277.214 69.6261 278.03 69.1678C278.847 68.7096 279.447 68.0826 279.829 67.2854C280.122 66.6711 280.266 65.7641 280.266 64.5643V63.5665H280.265Z" fill="#1F2428"/>
<path d="M287.112 77.8038L286.81 75.2498C287.405 75.4105 287.924 75.4917 288.366 75.4917C288.971 75.4917 289.455 75.3914 289.818 75.1893C290.181 74.9872 290.479 74.7056 290.709 74.3428C290.881 74.0707 291.158 73.396 291.54 72.3171C291.591 72.1659 291.671 71.9447 291.782 71.6519L285.689 55.5704H288.623L291.964 64.8651C292.396 66.0442 292.785 67.2838 293.127 68.5823C293.439 67.3332 293.813 66.1142 294.246 64.9255L297.678 55.5704H300.399L294.292 71.8938C293.636 73.6569 293.129 74.8711 292.766 75.5362C292.282 76.4321 291.728 77.0909 291.102 77.5078C290.477 77.9263 289.732 78.1348 288.865 78.1348C288.341 78.1348 287.755 78.0234 287.111 77.8022L287.112 77.8038Z" fill="#1F2428"/>
<defs>
<linearGradient id="paint0_linear_1_114" x1="12.4786" y1="54.1112" x2="347.557" y2="54.1112" gradientUnits="userSpaceOnUse">
<stop stop-color="#F5F5F5"/>
<stop offset="1" stop-color="white"/>
</linearGradient>
<linearGradient id="paint1_linear_1_114" x1="13.5928" y1="54.1112" x2="346.443" y2="54.1112" gradientUnits="userSpaceOnUse">
<stop stop-color="white"/>
<stop offset="0.74" stop-color="#FDFDFD"/>
<stop offset="1" stop-color="#F7F7F7"/>
</linearGradient>
<linearGradient id="paint2_linear_1_114" x1="52.1508" y1="38.7744" x2="92.4709" y2="38.7744" gradientUnits="userSpaceOnUse">
<stop stop-color="#80C41C"/>
<stop offset="1" stop-color="#40F429"/>
</linearGradient>
<linearGradient id="paint3_linear_1_114" x1="67.8033" y1="69.4352" x2="37.2872" y2="38.9119" gradientUnits="userSpaceOnUse">
<stop stop-color="#00D4FC"/>
<stop offset="1" stop-color="#0086FF"/>
</linearGradient>
<linearGradient id="paint4_linear_1_114" x1="51.9185" y1="69.4098" x2="92.4629" y2="69.4098" gradientUnits="userSpaceOnUse">
<stop stop-color="#E0000B"/>
<stop offset="1" stop-color="#FF2600"/>
</linearGradient>
<linearGradient id="paint5_linear_1_114" x1="83.0848" y1="54.1143" x2="104.564" y2="54.1143" gradientUnits="userSpaceOnUse">
<stop stop-color="#FFC400"/>
<stop offset="1" stop-color="#FFF420"/>
</linearGradient>
</defs>
</svg>
