<svg width="318" height="69" viewBox="0 0 318 69" fill="none" xmlns="http://www.w3.org/2000/svg">
<g clip-path="url(#clip0_1_569)">
<path d="M87.5258 55.5265V49.7294L106.942 21.6645H88.6529V15.1641H116.244V20.9612L96.8815 49.0261H116.783V55.5265H87.5225H87.5258Z" fill="#F28A5D"/>
<path d="M134.643 56.1765C131.631 56.1765 128.995 55.4899 126.737 54.1168C124.48 52.7437 122.721 50.885 121.468 48.5373C120.211 46.1897 119.586 43.5875 119.586 40.7341C119.586 37.8807 120.221 35.1446 121.494 32.8505C122.768 30.5564 124.506 28.7413 126.711 27.405C128.915 26.0687 131.382 25.3989 134.105 25.3989C136.399 25.3989 138.417 25.7774 140.156 26.5376C141.894 27.2945 143.374 28.3427 144.594 29.679C145.814 31.0152 146.745 32.5424 147.39 34.2571C148.035 35.9718 148.358 37.8238 148.358 39.8098C148.358 40.3155 148.331 40.8379 148.278 41.3805C148.225 41.923 148.125 42.3919 147.982 42.7904H125.391V37.3717H144.002L140.668 39.917C140.99 38.2558 140.91 36.7756 140.425 35.4728C139.94 34.1734 139.152 33.1419 138.058 32.385C136.964 31.6281 135.644 31.2463 134.105 31.2463C132.565 31.2463 131.325 31.6181 130.178 32.3582C129.031 33.0983 128.16 34.1834 127.568 35.6101C126.977 37.0368 126.751 38.7615 126.897 40.7844C126.754 42.5895 126.997 44.1903 127.622 45.5802C128.25 46.97 129.181 48.045 130.418 48.8053C131.654 49.5655 133.081 49.9439 134.693 49.9439C136.306 49.9439 137.679 49.6023 138.809 48.9158C139.94 48.2292 140.827 47.3083 141.472 46.1528L147.174 48.9694C146.599 50.3793 145.705 51.6252 144.484 52.7069C143.264 53.792 141.821 54.6393 140.156 55.2521C138.487 55.865 136.651 56.1731 134.643 56.1731V56.1765Z" fill="#F28A5D"/>
<path d="M153.684 55.5268V26.0521H160.3V31.8492L159.761 30.8211C160.443 29.0528 161.563 27.7065 163.123 26.7855C164.682 25.8645 166.501 25.4023 168.582 25.4023C170.663 25.4023 172.641 25.8712 174.31 26.8123C175.979 27.7534 177.276 29.0595 178.21 30.7407C179.141 32.4219 179.61 34.361 179.61 36.5646V55.5268H172.565V38.2425C172.565 36.9431 172.312 35.8245 171.813 34.8834C171.311 33.9457 170.62 33.2123 169.742 32.6898C168.864 32.1674 167.834 31.9028 166.65 31.9028C165.467 31.9028 164.479 32.164 163.585 32.6898C162.687 33.2156 161.989 33.9457 161.487 34.8834C160.985 35.8245 160.736 36.9431 160.736 38.2425V55.5268H153.69H153.684Z" fill="#F28A5D"/>
<path d="M186.169 55.527V15.1611H199.238C203.467 15.1611 207.154 16.0185 210.293 17.7332C213.431 19.4479 215.858 21.8156 217.581 24.8298C219.303 27.8472 220.164 31.3403 220.164 35.3156C220.164 39.2909 219.303 42.7471 217.581 45.798C215.858 48.849 213.431 51.2335 210.293 52.9482C207.154 54.6629 203.471 55.5203 199.238 55.5203H186.169V55.527ZM193.483 49.0265H199.401C202.127 49.0265 204.485 48.4572 206.473 47.3185C208.461 46.1798 210.014 44.5924 211.124 42.5495C212.235 40.5099 212.79 38.0986 212.79 35.3156C212.79 32.5325 212.235 30.0777 211.124 28.0549C210.014 26.0321 208.461 24.4614 206.473 23.3395C204.481 22.2209 202.124 21.6582 199.401 21.6582H193.483V49.0198V49.0265Z" fill="#29A590"/>
<path d="M225.381 22.7467V15.1611H232.426V22.7467H225.381ZM225.381 55.527V26.0522H232.426V55.527H225.381Z" fill="#29A590"/>
<path d="M247.756 55.527L236.246 26.0522H243.936L252.274 49.2409H249.425L257.816 26.0522H265.51L254 55.527H247.759H247.756Z" fill="#29A590"/>
<path d="M282.715 56.1765C279.703 56.1765 277.066 55.4899 274.809 54.1168C272.551 52.7437 270.793 50.885 269.536 48.5373C268.279 46.1897 267.654 43.5875 267.654 40.7341C267.654 37.8807 268.289 35.1446 269.563 32.8505C270.836 30.5564 272.575 28.7413 274.779 27.405C276.983 26.0687 279.45 25.3989 282.176 25.3989C284.47 25.3989 286.489 25.7774 288.227 26.5376C289.966 27.2945 291.446 28.3427 292.666 29.679C293.886 31.0152 294.817 32.5424 295.462 34.2571C296.107 35.9718 296.429 37.8238 296.429 39.8098C296.429 40.3155 296.403 40.8379 296.35 41.3805C296.296 41.923 296.197 42.3919 296.054 42.7904H273.462V37.3717H292.071L288.736 39.917C289.059 38.2558 288.979 36.7756 288.493 35.4728C288.008 34.1734 287.22 33.1419 286.126 32.385C285.032 31.6281 283.716 31.2463 282.173 31.2463C280.63 31.2463 279.394 31.6181 278.247 32.3582C277.1 33.0983 276.229 34.1834 275.637 35.6101C275.045 37.0368 274.822 38.7615 274.965 40.7844C274.822 42.5895 275.065 44.1903 275.69 45.5802C276.318 46.97 277.249 48.045 278.486 48.8053C279.723 49.5655 281.149 49.9439 282.762 49.9439C284.374 49.9439 285.747 49.6023 286.878 48.9158C288.008 48.2292 288.896 47.3083 289.541 46.1528L295.242 48.9694C294.667 50.3793 293.773 51.6252 292.553 52.7069C291.333 53.792 289.89 54.6393 288.224 55.2521C286.555 55.865 284.72 56.1731 282.712 56.1731L282.715 56.1765Z" fill="#29A590"/>
<path d="M301.756 55.5268V26.052H308.372V32.6094L307.833 31.6348C308.515 29.4311 309.582 27.8973 311.035 27.0299C312.488 26.1625 314.237 25.7305 316.278 25.7305H318V32.0166H315.474C313.465 32.0166 311.853 32.6395 310.633 33.8853C309.413 35.1312 308.804 36.876 308.804 39.1132V55.5301H301.759L301.756 55.5268Z" fill="#29A590"/>
<path fill-rule="evenodd" clip-rule="evenodd" d="M61.2042 50.1954C42.2236 43.1792 22.3652 49.6126 2.65643 50.249C1.47616 47.7104 0.611741 44.9943 0.113037 42.151C21.5207 41.7424 43.0514 33.4904 63.721 42.1477C63.2256 44.9709 62.3712 47.6702 61.2042 50.1954Z" fill="#647B97"/>
<path fill-rule="evenodd" clip-rule="evenodd" d="M8.60763 58.9831C11.5965 62.1211 15.2038 64.6597 19.2333 66.3945C23.1266 68.0723 27.4154 69 31.917 69C36.9805 69 41.7714 67.8245 46.037 65.7314C49.6908 63.9396 52.959 61.4714 55.6819 58.4908C40.3551 53.628 24.4697 57.5229 8.60431 58.9797L8.60763 58.9831Z" fill="#228B7D"/>
<path fill-rule="evenodd" clip-rule="evenodd" d="M61.2042 50.1954C62.3712 47.6736 63.229 44.9742 63.721 42.1477C43.0481 33.4904 21.5174 41.7424 0.113037 42.151C0.611741 44.9943 1.47616 47.7104 2.65643 50.249C22.3652 49.6126 42.2236 43.1758 61.2042 50.1954ZM8.60762 58.9832C24.473 57.523 40.3617 53.6281 55.6852 58.4943C57.9228 56.0461 59.7912 53.2497 61.2042 50.1954C42.2236 43.1792 22.3652 49.6126 2.65643 50.249C4.16251 53.4875 6.1806 56.4346 8.60762 58.9832Z" fill="#29A590"/>
<path fill-rule="evenodd" clip-rule="evenodd" d="M61.2042 50.1952C61.2474 50.1114 61.3505 49.9205 61.3904 49.8234C62.4343 47.3518 62.7535 46.2366 63.2988 44.1703C63.6711 42.6933 63.9504 41.6049 63.9504 41.6049C43.3706 31.9229 21.4841 40.3591 0.0166016 41.4408L0.113018 42.1508C0.611721 44.9941 1.47614 47.7102 2.65641 50.2487C22.3652 49.6124 41.143 40.6906 61.2042 50.1952C61.2242 50.2052 61.1843 50.1885 61.2042 50.1952Z" fill="#40CCB1"/>
<path fill-rule="evenodd" clip-rule="evenodd" d="M63.7504 28.2457C63.0921 23.192 61.5595 18.423 59.3086 14.1061C59.6311 14.8027 59.947 15.5194 60.2595 16.2696C61.8221 20.3353 62.7065 23.8585 63.1088 27.7969C62.773 25.4459 62.1845 23.1753 61.2902 20.6367C59.804 16.7619 58.1683 13.8449 55.7446 10.8174C50.8806 5.60292 44.4606 1.92904 37.246 0.576033C38.9948 1.05159 40.7369 1.69126 42.6254 2.53521C39.2375 1.07839 36.1921 0.351648 32.7776 0.0435373C32.2058 0.0133961 31.6273 0 31.0488 0C24.2764 0 17.9661 2.01946 12.6566 5.4991C14.1527 4.6384 15.7486 3.89492 17.5672 3.18827C20.0208 2.30078 22.1286 1.78503 24.7086 1.44343C22.1852 1.86206 20.0706 2.50842 17.6769 3.45954C13.5609 5.22783 10.6518 7.18701 7.38695 10.3217C4.80034 12.9406 3.08813 15.2917 1.34932 18.567C3.25769 15.4189 5.08627 13.2019 7.80919 10.7638C11.1538 7.91375 14.0829 6.21245 18.1955 4.74892C22.2383 3.43945 25.4965 2.99738 29.7322 3.21841C32.5382 3.4428 34.7691 3.90497 37.4388 4.8226C34.809 3.98869 32.4983 3.64039 29.7355 3.49304C25.5763 3.40261 22.378 3.9552 18.4449 5.36179C14.4985 6.90234 11.6991 8.64719 8.52732 11.5073C7.77927 12.2039 7.10103 12.9005 6.41947 13.6674C7.13428 12.9339 7.84244 12.2675 8.62041 11.6044C11.8753 8.91511 14.7179 7.32097 18.6942 5.97801C22.5775 4.78911 25.696 4.41737 29.7422 4.69868C33.0935 5.03359 35.6402 5.70004 38.7355 7.0564C35.6767 5.85745 33.0336 5.37184 29.7455 5.1776C25.8124 5.08717 22.7936 5.59622 19.0699 6.91574C15.333 8.36252 12.6765 10.0035 9.66769 12.6962C6.56908 15.6266 4.65406 18.3058 2.80886 22.1907C1.04012 26.2095 0.252168 29.4848 0.0127902 33.8687C-0.0237814 35.3054 0.0127902 36.6283 0.11918 37.9076C15.6654 37.1809 31.0022 32.9477 46.6948 33.8888C52.4066 34.2304 57.899 35.2653 63.1952 37.1842C63.1985 37.1541 63.2019 37.1206 63.2052 37.0905C63.2717 37.1173 63.3382 37.1441 63.4047 37.1675C63.6175 35.6437 63.7538 34.063 63.8302 32.3483C63.8535 30.9115 63.8302 29.5552 63.7504 28.2457Z" fill="#F28A5D"/>
</g>
<defs>
<clipPath id="clip0_1_569">
<rect width="318" height="69" fill="white"/>
</clipPath>
</defs>
</svg>
