<svg width="221" height="48" viewBox="0 0 221 48" fill="none" xmlns="http://www.w3.org/2000/svg">
<g clip-path="url(#clip0_21_3074)">
<path d="M60.8277 38.6276V34.5947L74.3213 15.0714H61.611V10.5493H80.7863V14.5821L67.3296 34.1055H81.1606V38.6276H60.8254H60.8277Z" fill="url(#paint0_linear_21_3074)"/>
<path d="M93.5729 39.0794C91.4795 39.0794 89.6473 38.6018 88.0784 37.6466C86.5095 36.6914 85.2873 35.3984 84.4162 33.7652C83.5428 32.1321 83.1084 30.3219 83.1084 28.3369C83.1084 26.352 83.5497 24.4485 84.4347 22.8527C85.3196 21.2568 86.528 19.994 88.0599 19.0645C89.5918 18.1349 91.3062 17.6689 93.1986 17.6689C94.7929 17.6689 96.1954 17.9322 97.4038 18.4611C98.6122 18.9876 99.6404 19.7168 100.488 20.6464C101.336 21.576 101.983 22.6383 102.432 23.8312C102.88 25.024 103.104 26.3123 103.104 27.6939C103.104 28.0457 103.085 28.4091 103.048 28.7865C103.012 29.164 102.942 29.4901 102.843 29.7674H87.1426V25.9978H100.077L97.7596 27.7684C97.9838 26.6129 97.9283 25.5831 97.591 24.6769C97.2536 23.7729 96.706 23.0553 95.9458 22.5288C95.1857 22.0023 94.2684 21.7367 93.1986 21.7367C92.1288 21.7367 91.267 21.9953 90.4698 22.5102C89.6727 23.0251 89.0673 23.7799 88.656 24.7724C88.2448 25.7649 88.0876 26.9647 88.1893 28.3719C88.09 29.6276 88.2586 30.7412 88.693 31.7081C89.1297 32.6749 89.7767 33.4228 90.6362 33.9516C91.4957 34.4805 92.4869 34.7437 93.6076 34.7437C94.7282 34.7437 95.6824 34.5061 96.468 34.0285C97.2536 33.5509 97.8705 32.9102 98.3188 32.1065L102.281 34.0658C101.882 35.0466 101.26 35.9133 100.412 36.6658C99.5642 37.4206 98.5614 38.0101 97.4038 38.4364C96.2439 38.8628 94.9685 39.0771 93.5729 39.0771V39.0794Z" fill="url(#paint1_linear_21_3074)"/>
<path d="M106.805 38.6276V18.1234H111.403V22.1562L111.029 21.4409C111.503 20.2108 112.281 19.2743 113.365 18.6336C114.449 17.9929 115.713 17.6714 117.159 17.6714C118.605 17.6714 119.98 17.9976 121.14 18.6522C122.3 19.3069 123.201 20.2155 123.85 21.385C124.497 22.5546 124.823 23.9035 124.823 25.4365V38.6276H119.927V26.6037C119.927 25.6997 119.751 24.9216 119.405 24.2669C119.056 23.6146 118.575 23.1044 117.965 22.7409C117.355 22.3775 116.639 22.1934 115.817 22.1934C114.994 22.1934 114.308 22.3752 113.686 22.7409C113.062 23.1067 112.577 23.6146 112.228 24.2669C111.879 24.9216 111.706 25.6997 111.706 26.6037V38.6276H106.81H106.805Z" fill="url(#paint2_linear_21_3074)"/>
<path d="M129.382 38.6274V10.5469H138.465C141.404 10.5469 143.966 11.1433 146.147 12.3361C148.328 13.529 150.015 15.1761 151.212 17.2729C152.409 19.372 153.007 21.8019 153.007 24.5674C153.007 27.3328 152.409 29.7371 151.212 31.8595C150.015 33.9819 148.328 35.6407 146.147 36.8335C143.966 38.0264 141.406 38.6228 138.465 38.6228H129.382V38.6274ZM134.465 34.1054H138.578C140.473 34.1054 142.111 33.7093 143.492 32.9172C144.874 32.1251 145.953 31.0208 146.725 29.5996C147.497 28.1808 147.883 26.5034 147.883 24.5674C147.883 22.6313 147.497 20.9236 146.725 19.5164C145.953 18.1093 144.874 17.0166 143.492 16.2361C142.108 15.458 140.47 15.0666 138.578 15.0666H134.465V34.1007V34.1054Z" fill="white"/>
<path d="M156.633 15.8238V10.5469H161.529V15.8238H156.633ZM156.633 38.6274V18.1232H161.529V38.6274H156.633Z" fill="white"/>
<path d="M172.183 38.6272L164.183 18.123H169.528L175.323 34.2543H173.343L179.174 18.123H184.521L176.522 38.6272H172.185H172.183Z" fill="white"/>
<path d="M196.478 39.0794C194.385 39.0794 192.552 38.6018 190.984 37.6466C189.415 36.6914 188.192 35.3984 187.319 33.7652C186.446 32.1321 186.011 30.3219 186.011 28.3369C186.011 26.352 186.453 24.4485 187.338 22.8527C188.222 21.2568 189.431 19.994 190.963 19.0645C192.495 18.1349 194.209 17.6689 196.104 17.6689C197.698 17.6689 199.101 17.9322 200.309 18.4611C201.517 18.9876 202.546 19.7168 203.394 20.6464C204.242 21.576 204.889 22.6383 205.337 23.8312C205.785 25.024 206.009 26.3123 206.009 27.6939C206.009 28.0457 205.991 28.4091 205.954 28.7865C205.917 29.164 205.847 29.4901 205.748 29.7674H190.048V25.9978H202.98L200.663 27.7684C200.887 26.6129 200.831 25.5831 200.494 24.6769C200.157 23.7729 199.609 23.0553 198.849 22.5288C198.089 22.0023 197.174 21.7367 196.101 21.7367C195.029 21.7367 194.17 21.9953 193.373 22.5102C192.576 23.0251 191.97 23.7799 191.559 24.7724C191.148 25.7649 190.993 26.9647 191.092 28.3719C190.993 29.6276 191.162 30.7412 191.596 31.7081C192.033 32.6749 192.68 33.4228 193.539 33.9516C194.399 34.4805 195.39 34.7437 196.51 34.7437C197.631 34.7437 198.585 34.5061 199.371 34.0285C200.157 33.5509 200.773 32.9102 201.222 32.1065L205.184 34.0658C204.785 35.0466 204.163 35.9133 203.315 36.6658C202.467 37.4206 201.464 38.0101 200.307 38.4364C199.147 38.8628 197.871 39.0771 196.476 39.0771L196.478 39.0794Z" fill="white"/>
<path d="M209.711 38.6273V18.1231H214.309V22.6847L213.934 22.0068C214.408 20.4738 215.15 19.4068 216.159 18.8034C217.169 18.2 218.384 17.8994 219.803 17.8994H221V22.2724H219.244C217.848 22.2724 216.728 22.7057 215.88 23.5724C215.032 24.439 214.609 25.6528 214.609 27.2091V38.6296H209.713L209.711 38.6273Z" fill="white"/>
<path fill-rule="evenodd" clip-rule="evenodd" d="M42.5346 34.9183C29.3436 30.0374 15.5427 34.5129 1.8457 34.9556C1.02545 33.1896 0.424708 31.3002 0.078125 29.3222C14.9558 29.038 29.919 23.2975 44.2837 29.3199C43.9394 31.2839 43.3456 33.1617 42.5346 34.9183Z" fill="white"/>
<path fill-rule="evenodd" clip-rule="evenodd" d="M5.98205 41.0316C8.05924 43.2146 10.5662 44.9806 13.3666 46.1874C16.0722 47.3546 19.0529 47.9999 22.1814 47.9999C25.7003 47.9999 29.0298 47.1822 31.9943 45.7261C34.5336 44.4797 36.8049 42.7626 38.6972 40.6891C28.0455 37.3063 17.0057 40.0158 5.97974 41.0293L5.98205 41.0316Z" fill="#5DD9CA"/>
<path fill-rule="evenodd" clip-rule="evenodd" d="M42.5346 34.9183C43.3456 33.164 43.9417 31.2862 44.2837 29.3199C29.9166 23.2975 14.9535 29.038 0.078125 29.3222C0.424708 31.3002 1.02545 33.1896 1.8457 34.9556C15.5427 34.5129 29.3436 30.0351 42.5346 34.9183ZM5.98159 41.0316C17.0076 40.0158 28.0497 37.3063 38.6991 40.6914C40.2541 38.9884 41.5526 37.043 42.5346 34.9183C29.3436 30.0374 15.5427 34.5129 1.8457 34.9556C2.89238 37.2084 4.29489 39.2586 5.98159 41.0316Z" fill="#7FEFE2"/>
<path fill-rule="evenodd" clip-rule="evenodd" d="M42.535 34.9182C42.565 34.86 42.6367 34.7272 42.6644 34.6596C43.3899 32.9403 43.6117 32.1645 43.9906 30.727C44.2494 29.6996 44.4435 28.9424 44.4435 28.9424C30.1412 22.2071 14.9308 28.0757 0.0115356 28.8282L0.0785417 29.3221C0.425125 31.3001 1.02587 33.1895 1.84612 34.9555C15.5431 34.5128 28.5931 28.3064 42.535 34.9182C42.5489 34.9252 42.5211 34.9136 42.535 34.9182Z" fill="#ACFAEB"/>
<path fill-rule="evenodd" clip-rule="evenodd" d="M44.3042 19.6492C43.8468 16.1336 42.7816 12.816 41.2173 9.81294C41.4415 10.2975 41.661 10.7961 41.8782 11.318C42.9641 14.1463 43.5787 16.5972 43.8583 19.337C43.6249 17.7015 43.216 16.1219 42.5944 14.356C41.5616 11.6604 40.4248 9.63122 38.7404 7.52512C35.3601 3.89769 30.8984 1.34194 25.8845 0.400718C27.0999 0.731544 28.3106 1.17653 29.623 1.76363C27.2685 0.750182 25.1521 0.244625 22.7791 0.0302869C22.3817 0.00931903 21.9797 0 21.5776 0C16.871 0 12.4856 1.40484 8.79563 3.82546C9.83538 3.22671 10.9444 2.70951 12.2083 2.21793C13.9135 1.60054 15.3784 1.24176 17.1714 1.00413C15.4177 1.29535 13.9482 1.74499 12.2846 2.40664C9.4241 3.63675 7.40237 4.99966 5.1334 7.18031C3.33579 9.00218 2.14585 10.6377 0.937434 12.9162C2.26369 10.7262 3.5345 9.18391 5.42684 7.48784C7.75126 5.50522 9.78686 4.3217 12.645 3.3036C15.4547 2.39266 17.719 2.08513 20.6626 2.2389C22.6128 2.39499 24.1631 2.7165 26.0185 3.35485C24.1909 2.77474 22.585 2.53245 20.665 2.42994C17.7745 2.36703 15.5517 2.75144 12.8183 3.72994C10.0757 4.80163 8.13019 6.01544 5.92592 8.00505C5.40605 8.48964 4.93469 8.97423 4.46103 9.50774C4.9578 8.99753 5.44995 8.5339 5.99062 8.07261C8.25265 6.20182 10.2282 5.09285 12.9916 4.15862C15.6903 3.33155 17.8576 3.07295 20.6696 3.26865C22.9986 3.50163 24.7685 3.96525 26.9196 4.9088C24.7939 4.07475 22.957 3.73693 20.6719 3.60181C17.9385 3.5389 15.8405 3.89303 13.2527 4.81095C10.6556 5.81741 8.8095 6.95899 6.71844 8.83211C4.56501 10.8707 3.23413 12.7345 1.95177 15.437C0.722552 18.2327 0.174951 20.5112 0.00859089 23.5608C-0.0168252 24.5603 0.0085909 25.4806 0.0825287 26.3705C10.8867 25.865 21.5453 22.9202 32.4511 23.5748C36.4206 23.8125 40.2377 24.5324 43.9184 25.8673C43.9207 25.8463 43.923 25.823 43.9253 25.8021C43.9715 25.8207 44.0177 25.8393 44.064 25.8557C44.2118 24.7956 44.3066 23.696 44.3597 22.5031C44.3759 21.5037 44.3597 20.5601 44.3042 19.6492Z" fill="url(#paint3_linear_21_3074)"/>
</g>
<defs>
<linearGradient id="paint0_linear_21_3074" x1="55.1345" y1="8.09841" x2="87.9805" y2="42.0882" gradientUnits="userSpaceOnUse">
<stop stop-color="white"/>
<stop offset="0.76" stop-color="#F1895D"/>
</linearGradient>
<linearGradient id="paint1_linear_21_3074" x1="70.3264" y1="4.20062" x2="103.172" y2="38.1904" gradientUnits="userSpaceOnUse">
<stop stop-color="white"/>
<stop offset="0.76" stop-color="#F1895D"/>
</linearGradient>
<linearGradient id="paint2_linear_21_3074" x1="88.8616" y1="1.99212" x2="121.708" y2="35.9819" gradientUnits="userSpaceOnUse">
<stop stop-color="white"/>
<stop offset="0.76" stop-color="#F1895D"/>
</linearGradient>
<linearGradient id="paint3_linear_21_3074" x1="20.5217" y1="30.4429" x2="26.2764" y2="-1.18551" gradientUnits="userSpaceOnUse">
<stop stop-color="white"/>
<stop offset="0.81" stop-color="#F1895D"/>
</linearGradient>
<clipPath id="clip0_21_3074">
<rect width="221" height="48" fill="white"/>
</clipPath>
</defs>
</svg>
