<svg width="178" height="39" viewBox="0 0 178 39" fill="none" xmlns="http://www.w3.org/2000/svg">
<g clip-path="url(#clip0_49_18)">
<path d="M48.9921 31.3849V28.1082L59.8603 12.2455H49.623V8.57129H65.0673V11.8479L54.2289 27.7107H65.3688V31.3849H48.9902H48.9921Z" fill="#F28A5D"/>
<path d="M75.3662 31.752C73.6801 31.752 72.2043 31.3639 70.9407 30.5878C69.6771 29.8117 68.6927 28.7611 67.9911 27.4342C67.2876 26.1073 66.9377 24.6364 66.9377 23.0237C66.9377 21.4109 67.2932 19.8644 68.006 18.5677C68.7187 17.2711 69.692 16.2451 70.9258 15.4898C72.1597 14.7345 73.5405 14.356 75.0647 14.356C76.3488 14.356 77.4784 14.5699 78.4517 14.9996C79.425 15.4274 80.2531 16.0198 80.9361 16.7751C81.6191 17.5304 82.1402 18.3936 82.5012 19.3628C82.8622 20.3319 83.0428 21.3787 83.0428 22.5012C83.0428 22.7871 83.0279 23.0824 82.9981 23.389C82.9683 23.6957 82.9125 23.9607 82.8325 24.1859H70.187V21.1232H80.6049L78.7383 22.5618C78.9188 21.6229 78.8741 20.7862 78.6024 20.0499C78.3307 19.3154 77.8897 18.7324 77.2774 18.3046C76.6651 17.8768 75.9263 17.661 75.0647 17.661C74.203 17.661 73.5089 17.8711 72.8669 18.2895C72.2248 18.7078 71.7372 19.3211 71.406 20.1275C71.0747 20.9339 70.9482 21.9087 71.0301 23.0521C70.95 24.0724 71.0859 24.9772 71.4358 25.7627C71.7875 26.5483 72.3086 27.1559 73.0008 27.5856C73.6931 28.0153 74.4915 28.2292 75.3941 28.2292C76.2967 28.2292 77.0653 28.0361 77.698 27.6481C78.3307 27.26 78.8276 26.7395 79.1886 26.0864L82.3802 27.6784C82.0583 28.4753 81.5577 29.1795 80.8747 29.7909C80.1917 30.4042 79.384 30.8831 78.4517 31.2295C77.5175 31.5759 76.4902 31.7501 75.3662 31.7501V31.752Z" fill="#F28A5D"/>
<path d="M86.0244 31.3848V14.7251H89.7278V18.0018L89.4263 17.4207C89.8078 16.4212 90.435 15.6602 91.3078 15.1397C92.1806 14.6191 93.1985 14.3579 94.3635 14.3579C95.5285 14.3579 96.6358 14.6229 97.57 15.1548C98.5042 15.6867 99.23 16.425 99.7529 17.3752C100.274 18.3255 100.536 19.4215 100.536 20.667V31.3848H96.593V21.6154C96.593 20.8809 96.4515 20.2487 96.1724 19.7168C95.8914 19.1868 95.5043 18.7722 95.013 18.4769C94.5217 18.1816 93.9448 18.0321 93.2823 18.0321C92.6198 18.0321 92.067 18.1797 91.5664 18.4769C91.064 18.7741 90.6732 19.1868 90.3922 19.7168C90.1111 20.2487 89.9716 20.8809 89.9716 21.6154V31.3848H86.0281H86.0244Z" fill="#F28A5D"/>
<path d="M104.207 31.3848V8.56934H111.523C113.89 8.56934 115.954 9.05393 117.71 10.0231C119.467 10.9923 120.826 12.3306 121.79 14.0342C122.754 15.7397 123.236 17.7141 123.236 19.961C123.236 22.2079 122.754 24.1614 121.79 25.8858C120.826 27.6103 119.467 28.9581 117.71 29.9272C115.954 30.8964 113.892 31.381 111.523 31.381H104.207V31.3848ZM108.301 27.7106H111.614C113.14 27.7106 114.459 27.3888 115.572 26.7452C116.685 26.1016 117.554 25.2044 118.176 24.0497C118.797 22.8969 119.108 21.534 119.108 19.961C119.108 18.388 118.797 17.0004 118.176 15.8571C117.554 14.7138 116.685 13.826 115.572 13.1919C114.457 12.5596 113.138 12.2416 111.614 12.2416H108.301V27.7068V27.7106Z" fill="white"/>
<path d="M126.156 12.8568V8.56934H130.1V12.8568H126.156ZM126.156 31.3848V14.7251H130.1V31.3848H126.156Z" fill="white"/>
<path d="M138.681 31.3848L132.238 14.7251H136.543L141.21 27.8317H139.615L144.312 14.7251H148.619L142.176 31.3848H138.683H138.681Z" fill="white"/>
<path d="M158.249 31.752C156.563 31.752 155.087 31.3639 153.823 30.5878C152.56 29.8117 151.575 28.7611 150.872 27.4342C150.168 26.1073 149.818 24.6364 149.818 23.0237C149.818 21.4109 150.174 19.8644 150.887 18.5677C151.599 17.2711 152.573 16.2451 153.806 15.4898C155.04 14.7345 156.421 14.356 157.947 14.356C159.231 14.356 160.361 14.5699 161.334 14.9996C162.307 15.4274 163.136 16.0198 163.819 16.7751C164.502 17.5304 165.023 18.3936 165.384 19.3628C165.745 20.3319 165.925 21.3787 165.925 22.5012C165.925 22.7871 165.91 23.0824 165.881 23.389C165.851 23.6957 165.795 23.9607 165.715 24.1859H153.07V21.1232H163.485L161.619 22.5618C161.799 21.6229 161.755 20.7862 161.483 20.0499C161.211 19.3154 160.77 18.7324 160.158 18.3046C159.546 17.8768 158.809 17.661 157.945 17.661C157.082 17.661 156.39 17.8711 155.747 18.2895C155.105 18.7078 154.618 19.3211 154.287 20.1275C153.955 20.9339 153.831 21.9087 153.911 23.0521C153.831 24.0724 153.967 24.9772 154.316 25.7627C154.668 26.5483 155.189 27.1559 155.881 27.5856C156.574 28.0153 157.372 28.2292 158.275 28.2292C159.177 28.2292 159.946 28.0361 160.579 27.6481C161.211 27.26 161.708 26.7395 162.069 26.0864L165.261 27.6784C164.939 28.4753 164.438 29.1795 163.755 29.7909C163.072 30.4042 162.265 30.8831 161.332 31.2295C160.398 31.5759 159.371 31.7501 158.247 31.7501L158.249 31.752Z" fill="white"/>
<path d="M168.907 31.3846V14.7249H172.61V18.4313L172.309 17.8804C172.69 16.6349 173.288 15.7679 174.101 15.2777C174.914 14.7874 175.893 14.5432 177.036 14.5432H178V18.0962H176.585C175.461 18.0962 174.559 18.4483 173.876 19.1525C173.193 19.8567 172.852 20.8429 172.852 22.1074V31.3865H168.909L168.907 31.3846Z" fill="white"/>
<path fill-rule="evenodd" clip-rule="evenodd" d="M34.2589 28.3711C23.6345 24.4055 12.5188 28.0418 1.48689 28.4014C0.826238 26.9666 0.342381 25.4314 0.0632324 23.8243C12.0461 23.5934 24.0979 18.9292 35.6677 23.8224C35.3904 25.4182 34.9121 26.9439 34.2589 28.3711Z" fill="#647B97"/>
<path fill-rule="evenodd" clip-rule="evenodd" d="M4.81802 33.3383C6.49105 35.112 8.51023 36.5468 10.7657 37.5274C12.945 38.4757 15.3456 39.0001 17.8654 39.0001C20.6997 39.0001 23.3814 38.3356 25.7691 37.1526C27.8143 36.1398 29.6436 34.7448 31.1678 33.06C22.5886 30.3115 13.6968 32.513 4.81616 33.3364L4.81802 33.3383Z" fill="#5CC8B8"/>
<path fill-rule="evenodd" clip-rule="evenodd" d="M34.2589 28.3711C34.9121 26.9458 35.3923 25.4201 35.6677 23.8224C24.0961 18.9292 12.0443 23.5934 0.0632324 23.8243C0.342381 25.4314 0.826238 26.9666 1.48689 28.4014C12.5188 28.0418 23.6345 24.4036 34.2589 28.3711ZM4.81806 33.3382C13.6987 32.5129 22.5924 30.3114 31.1697 33.0618C32.4221 31.6781 33.468 30.0975 34.2589 28.3711C23.6345 24.4055 12.5188 28.0418 1.48689 28.4014C2.32992 30.2319 3.45954 31.8977 4.81806 33.3382Z" fill="#8FD7CC"/>
<path fill-rule="evenodd" clip-rule="evenodd" d="M34.2594 28.3712C34.2836 28.3239 34.3413 28.216 34.3636 28.1611C34.948 26.7641 35.1267 26.1338 35.4319 24.9658C35.6403 24.1311 35.7966 23.5159 35.7966 23.5159C24.2771 18.0434 12.0262 22.8117 0.00976562 23.4231L0.0637343 23.8244C0.342883 25.4315 0.82674 26.9667 1.48739 28.4015C12.5193 28.0418 23.0302 22.9991 34.2594 28.3712C34.2706 28.3769 34.2483 28.3674 34.2594 28.3712Z" fill="#D8ECE8"/>
<path fill-rule="evenodd" clip-rule="evenodd" d="M35.6838 15.965C35.3153 13.1085 34.4574 10.413 33.1975 7.97301C33.378 8.36674 33.5548 8.77183 33.7297 9.19585C34.6044 11.4939 35.0994 13.4852 35.3246 15.7113C35.1366 14.3825 34.8073 13.0991 34.3066 11.6642C33.4748 9.47411 32.5592 7.82537 31.2025 6.11416C28.4799 3.16687 24.8863 1.09033 20.848 0.325584C21.8268 0.59438 22.802 0.955929 23.859 1.43295C21.9627 0.609523 20.258 0.198757 18.3468 0.0246081C18.0267 0.00757171 17.7029 0 17.3791 0C13.5882 0 10.0561 1.14144 7.08408 3.10819C7.92152 2.62171 8.8148 2.20148 9.83276 1.80207C11.2062 1.30044 12.386 1.00893 13.8302 0.815852C12.4177 1.05247 11.2341 1.4178 9.89417 1.9554C7.59026 2.95486 5.9619 4.06222 4.13441 5.83401C2.68656 7.31428 1.72815 8.64311 0.754847 10.4944C1.82306 8.71504 2.8466 7.46192 4.37075 6.08387C6.24291 4.47299 7.88244 3.51138 10.1845 2.68417C12.4474 1.94404 14.2712 1.69417 16.6421 1.8191C18.2128 1.94593 19.4615 2.20715 20.9559 2.72582C19.4839 2.25448 18.1905 2.05761 16.644 1.97432C14.3159 1.92322 12.5256 2.23555 10.3241 3.03058C8.11506 3.90133 6.54811 4.88754 4.77273 6.5041C4.354 6.89783 3.97436 7.29156 3.59286 7.72504C3.99297 7.31049 4.38936 6.9338 4.82483 6.559C6.64674 5.03898 8.23789 4.13794 10.4636 3.37888C12.6373 2.70689 14.3829 2.49677 16.6477 2.65578C18.5236 2.84507 19.9491 3.22176 21.6817 3.9884C19.9696 3.31073 18.4901 3.03626 16.6496 2.92647C14.448 2.87536 12.7582 3.16308 10.6739 3.9089C8.58217 4.72664 7.09524 5.65418 5.41105 7.17609C3.6766 8.8324 2.60467 10.3467 1.57182 12.5425C0.581775 14.8141 0.140721 16.6653 0.00672935 19.1432C-0.0137415 19.9553 0.00672935 20.703 0.066281 21.4261C8.76827 21.0153 17.353 18.6226 26.1369 19.1545C29.3341 19.3476 32.4084 19.9325 35.373 21.0172C35.3749 21.0001 35.3767 20.9812 35.3786 20.9642C35.4158 20.9793 35.453 20.9945 35.4902 21.0077C35.6093 20.1464 35.6856 19.253 35.7284 18.2838C35.7415 17.4717 35.7284 16.7051 35.6838 15.965Z" fill="#F28A5D"/>
</g>
<defs>
<clipPath id="clip0_49_18">
<rect width="178" height="39" fill="white"/>
</clipPath>
</defs>
</svg>
