<svg width="32" height="27" viewBox="0 0 32 27" fill="none" xmlns="http://www.w3.org/2000/svg">
<path d="M22.6002 11.4001C21.0002 11.4001 19.7335 10.8668 18.8002 9.8001C17.8002 8.8001 17.3002 7.46677 17.3002 5.8001C17.3002 4.0001 17.9002 2.56677 19.1002 1.5001C20.2335 0.500098 21.8002 9.83604e-05 23.8002 9.85352e-05C26.1335 9.87392e-05 27.9669 0.900099 29.3002 2.7001C30.5669 4.5001 31.2002 7.06677 31.2002 10.4001C31.2002 13.4001 30.5335 16.1668 29.2002 18.7001C27.8669 21.3001 25.8669 23.9001 23.2002 26.5001C23.1335 26.5668 23.0335 26.6001 22.9002 26.6001C22.7002 26.6001 22.5335 26.5001 22.4002 26.3001C22.2669 26.1001 22.2669 25.9334 22.4002 25.8001C25.6669 22.4668 27.3002 18.5334 27.3002 14.0001C27.3002 12.1334 26.9669 10.7668 26.3002 9.9001C25.7002 10.9001 24.4669 11.4001 22.6002 11.4001ZM5.3002 11.4001C3.7002 11.4001 2.43353 10.8668 1.50019 9.8001C0.500196 8.8001 0.000194315 7.46677 0.000194461 5.8001C0.000194618 4.0001 0.600195 2.56676 1.80019 1.5001C2.93353 0.500097 4.5002 9.68479e-05 6.5002 9.70228e-05C8.83353 9.72268e-05 10.6669 0.900097 12.0002 2.7001C13.2669 4.5001 13.9002 7.06677 13.9002 10.4001C13.9002 13.4001 13.2335 16.1668 11.9002 18.7001C10.5669 21.3001 8.56686 23.9001 5.90019 26.5001C5.83353 26.5668 5.73353 26.6001 5.60019 26.6001C5.40019 26.6001 5.23353 26.5001 5.10019 26.3001C4.96686 26.1001 4.96686 25.9334 5.1002 25.8001C8.36686 22.4668 10.0002 18.5334 10.0002 14.0001C10.0002 12.1334 9.66686 10.7668 9.00019 9.90009C8.4002 10.9001 7.16686 11.4001 5.3002 11.4001Z" fill="#32B1A2"/>
</svg>
