<svg width="170" height="27" viewBox="0 0 170 27" fill="none" xmlns="http://www.w3.org/2000/svg">
<g clip-path="url(#clip0_1_465)">
<path d="M4.05878 24.9709C55.1368 1.53059 113.8 -0.978969 166.757 17.6914C170 18.8305 171.383 13.669 168.175 12.5477C113.818 -6.62103 53.7366 -3.66651 1.3826 20.3612C-1.71895 21.785 0.974964 26.3948 4.05878 24.9709Z" fill="#FE6F3A"/>
<path d="M5.61822 26.5905C21.1614 16.9082 40.7809 15.8759 58.6103 15.1462C77.8399 14.3453 97.034 15.6623 116.015 18.8482C119.365 19.4178 120.801 14.2563 117.433 13.7045C96.8922 10.2695 76.103 8.8634 55.2784 9.98469C37.5198 10.9458 18.3966 12.3697 2.94204 21.9985C0.0354472 23.814 2.71164 28.4237 5.61822 26.6083V26.5905Z" fill="#FE6F3A"/>
</g>
<defs>
<clipPath id="clip0_1_465">
<rect width="170" height="27" fill="white"/>
</clipPath>
</defs>
</svg>
