<svg width="49" height="49" viewBox="0 0 49 49" fill="none" xmlns="http://www.w3.org/2000/svg">
<circle cx="24.5" cy="24.5" r="24.5" fill="#32B1A2"/>
<g clip-path="url(#clip0_102_16)">
<path d="M24.8659 25.7578C25.1895 25.7578 25.4519 26.0202 25.4519 26.3438C25.4519 26.6673 25.1895 26.9297 24.8659 26.9297H22.6562C22.3327 26.9297 22.0703 26.6673 22.0703 26.3438V24.1341C22.0703 23.8105 22.3327 23.5481 22.6562 23.5481C22.9798 23.5481 23.2422 23.8105 23.2422 24.1341V24.9292L27.5704 20.6009C26.2377 19.4575 24.5068 18.7656 22.6172 18.7656C18.4171 18.7656 15 22.1827 15 26.3828C15 30.5829 18.4171 34 22.6172 34C26.8173 34 30.2344 30.5829 30.2344 26.3828C30.2344 24.4932 29.5425 22.7623 28.3991 21.4296L24.0708 25.7578H24.8659Z" fill="white"/>
<path d="M30.4688 17.9453H28.2591C27.9355 17.9453 27.6731 18.2077 27.6731 18.5312C27.6731 18.8548 27.9355 19.1172 28.2591 19.1172H29.0542L27.5704 20.6009C27.8673 20.8556 28.1444 21.1327 28.3991 21.4296L29.8828 19.9458V20.7409C29.8828 21.0645 30.1452 21.3269 30.4688 21.3269C30.7923 21.3269 31.0547 21.0645 31.0547 20.7409V18.5312C31.0547 18.2077 30.7923 17.9453 30.4688 17.9453Z" fill="white"/>
<path d="M27.3829 14C24.5802 14 22.1268 15.5218 20.8042 17.7822C21.3047 17.6768 21.8206 17.6142 22.3482 17.5982C23.5302 16.1204 25.3476 15.1719 27.3829 15.1719C30.9368 15.1719 33.8282 18.0632 33.8282 21.6172C33.8282 23.6524 32.8797 25.4699 31.4018 26.6519C31.3859 27.1795 31.3232 27.6955 31.2178 28.1961C33.4783 26.8734 35.0001 24.4199 35.0001 21.6172C35.0001 17.4171 31.583 14 27.3829 14Z" fill="white"/>
</g>
<defs>
<clipPath id="clip0_102_16">
<rect width="20" height="20" fill="white" transform="translate(15 14)"/>
</clipPath>
</defs>
</svg>
