<svg width="144" height="140" viewBox="0 0 144 140" fill="none" xmlns="http://www.w3.org/2000/svg">
<g clip-path="url(#clip0_102_8)">
<path d="M27.3899 97.6039C43.6643 114.67 75.9359 121.341 95.0249 105.148C113.97 89.0755 110.934 60.1029 99.0885 40.9564C84.9406 18.0777 52.0421 4.87786 28.1274 21.1891C5.89654 36.3489 4.9376 69.6617 13.4544 92.5807C17.0259 102.199 23.3207 110.614 32.1875 115.941C42.274 121.999 54.517 122.86 65.9642 121.557C90.2457 118.793 114.385 100.767 119.892 76.3928C131.164 26.4947 54.0468 -5.79852 23.6108 33.0588C9.71824 50.7978 8.97119 77.3498 18.6568 97.1019C23.42 106.812 31.4162 115.123 41.4591 119.396C51.8617 123.816 63.3902 124.45 74.4853 122.794C96.9612 119.439 120.003 105.699 129.291 84.3465C136.267 68.3216 135.821 46.8967 122.517 34.3073C111.966 24.3234 96.3807 21.0899 82.3373 20.07C76.3274 19.6332 70.2803 19.6643 64.2671 20.0421C61.794 20.1961 58.9334 20.1479 56.5318 20.8731C56.352 20.9276 56.2217 21.0952 56.1448 21.254C55.9741 21.6168 56.2846 22.0142 56.6246 22.115C56.8044 22.1699 56.9418 22.1529 57.1285 22.1398C57.0245 21.7016 56.9135 21.2585 56.8095 20.8204C33.3743 22.8536 19.8521 43.3067 17.3638 65.1149C14.9275 86.4344 22.5348 111.56 43.8173 120.41C64.1352 128.851 90.2846 123.817 106.776 109.505C116.192 101.332 122.649 89.7629 124.63 77.4986C126.539 65.6719 123.631 53.5422 117.61 43.3082C104.042 20.2531 72.401 6.62954 46.7955 16.864C19.0089 27.9751 15.5734 63.6355 18.694 89.1555C20.4436 103.46 26.6514 116.221 39.5163 123.544C52.4217 130.891 68.1654 131.473 82.5049 129.029C88.2233 128.057 94.0374 126.746 99.0826 123.797C103.361 121.293 107.027 117.859 110.275 114.154C118.277 105.035 123.62 93.5181 126.566 81.8393C129.594 69.8186 129.827 56.9003 125.732 45.1096C121.713 33.5492 112.983 24.3532 102.729 17.9159C82.6792 5.33516 55.8845 5.83656 38.9406 23.4075C30.0746 32.6053 25.2856 44.8852 23.5332 57.354C21.6804 70.4956 22.2768 84.757 28.0366 96.9182C39.5374 121.201 74.738 123.79 96.3957 113.022C115.416 103.571 128.938 81.9209 127.334 60.569C126.567 50.3338 121.588 41.085 113.594 34.6753C102.867 26.0699 87.8126 23.4215 74.3935 23.6515C59.8618 23.8983 46.0216 28.482 35.1987 38.2939C24.4271 48.0487 15.9022 61.8914 12.8496 76.1276C10.1989 88.5102 12.0276 101.362 22.4377 109.565C31.7099 116.872 44.8644 118.478 56.3025 118.356C69.3827 118.213 82.9061 114.248 93.9384 107.244C107.455 98.6624 114.638 84.4861 112.654 68.5318C110.657 52.4643 101.484 38.27 92.0371 25.5675C91.4536 24.7785 90.0294 25.698 90.6673 26.5569C103.27 43.4985 117.848 68.6499 107.414 90.0364C100.93 103.33 86.1782 110.649 72.4322 114.087C65.5414 115.809 58.5896 116.441 51.4949 116.15C39.2818 115.649 25.0777 112.293 17.9552 101.454C9.69427 88.8805 15.0105 71.5365 21.421 59.4035C28.9358 45.1715 40.8885 32.9403 56.5486 28.1604C81.1144 20.6641 118.918 27.2143 124.848 56.5031C129.402 79.0182 114.072 102.97 93.9042 112.304C80.9366 118.309 65.1235 118.801 51.638 114.352C44.9471 112.146 38.599 108.316 34.0512 102.901C29.8307 97.8745 27.5143 91.4837 26.0823 85.1691C20.1382 59.0236 28.879 25.0846 55.6023 13.9213C79.2052 4.06554 108.843 17.2296 120.945 38.7387C133.697 61.4022 125.609 92.4371 110.126 111.743C106.69 116.032 102.585 119.898 97.8171 122.685C92.3333 125.89 85.6378 126.996 79.4361 127.922C63.5541 130.291 45.514 128.047 33.1772 116.972C21.6739 106.65 19.8062 90.0441 19.5722 75.5092C19.3311 60.6779 21.3444 45.3343 29.886 32.7889C49.1527 4.47604 90.6486 13.3406 110.458 36.0342C118.864 45.6613 123.697 58.1058 123.593 70.8869C123.477 84.6786 116.899 97.6659 107.106 107.184C90.6636 123.17 61.2742 128.256 40.8649 117.455C19.2665 106.033 14.9216 76.0895 20.9465 54.5806C25.7697 37.3863 38.7392 23.7329 57.1295 22.1457C58.1264 22.0573 57.7264 20.7636 56.8104 20.8263C56.9794 20.8162 56.9339 20.7995 57.1197 20.8533C57.278 21.1427 57.4353 21.4261 57.5995 21.7144C57.344 22.2616 56.839 22.158 57.6472 22.0345C58.1886 21.9557 58.732 21.8888 59.2764 21.8278C61.1359 21.6128 63.0003 21.4638 64.8697 21.3443C70.9304 20.9585 77.0339 21.009 83.0852 21.4753C97.6376 22.5859 113.765 26.3603 123.807 37.7113C137.301 52.9542 133.163 78.6236 122.077 93.9109C107.791 113.624 80.6995 124.411 56.7327 121.935C44.7374 120.699 33.8954 115.296 26.1594 106.03C18.4244 96.7703 14.621 84.5722 13.8799 72.6801C13.1457 60.793 15.7224 48.5504 21.8605 38.2796C28.2167 27.638 38.4398 20.6788 50.563 18.2484C74.3896 13.4643 103.39 25.4474 114.71 47.3066C120.943 59.3458 120.586 73.7369 114.999 85.9137C109.389 98.1311 98.6845 107.668 86.8383 113.709C64.9763 124.858 34.4438 124.043 19.91 102.025C13.1506 91.7873 10.8181 79.1296 10.3417 67.0715C9.75979 52.3521 13.5096 37.5858 23.8585 26.6201C37.3571 12.3068 57.989 13.0346 74.7983 20.3273C86.1647 25.2595 94.9979 35.07 100.656 45.8631C106.432 56.8856 108.989 69.7911 106.697 82.0953C104.302 94.9513 95.8467 106.231 83.4878 110.961C65.0073 118.037 40.9962 111.339 27.5133 97.3949C27.4025 97.2798 27.2999 97.5036 27.3958 97.6029L27.3899 97.6039Z" fill="#32B1A2"/>
</g>
<circle cx="74.0922" cy="71.7168" r="56.703" fill="#32B1A2"/>
<g clip-path="url(#clip1_102_8)">
<path d="M77.0865 53.1562L78.8052 48L65.195 48L66.9136 53.1562L77.0865 53.1562Z" fill="white"/>
<path d="M82.3555 48L81.5229 48L79.2385 54.8528C79.063 55.3792 78.5705 55.7343 78.0156 55.7343L65.9844 55.7343C65.4295 55.7343 64.937 55.3792 64.7615 54.8528L62.4774 48L61.6447 48C59.0306 48 56.9037 50.1267 56.9037 52.7408L56.9037 87.2591C56.9037 89.8732 59.0306 92 61.6447 92L82.3555 92C84.9696 92 87.0963 89.8732 87.0963 87.2591L87.0963 52.7408C87.0963 50.1267 84.9696 48 82.3555 48ZM65.0047 75.5229C65.0047 76.2349 64.4275 76.812 63.7156 76.812C63.0037 76.812 62.4266 76.2349 62.4266 75.5229L62.4266 69.6333C62.4266 68.9214 63.0037 68.3442 63.7156 68.3442C64.4275 68.3442 65.0047 68.9214 65.0047 69.6333L65.0047 75.5229ZM70.5276 78.2843C70.5276 78.9962 69.9505 79.5734 69.2386 79.5734C68.5267 79.5734 67.9495 78.9962 67.9495 78.2843L67.9495 66.8718C67.9495 66.1599 68.5267 65.5827 69.2386 65.5827C69.9505 65.5827 70.5276 66.1599 70.5276 66.8718L70.5276 78.2843ZM76.0505 75.5229C76.0505 76.2349 75.4734 76.812 74.7614 76.812C74.0495 76.812 73.4724 76.2349 73.4724 75.5229L73.4724 69.6333C73.4724 68.9214 74.0495 68.3442 74.7614 68.3442C75.4734 68.3442 76.0505 68.9214 76.0505 69.6333L76.0505 75.5229ZM81.5735 78.2843C81.5735 78.9962 80.9963 79.5734 80.2844 79.5734C79.5725 79.5734 78.9953 78.9962 78.9953 78.2843L78.9953 66.8718C78.9953 66.1599 79.5725 65.5827 80.2844 65.5827C80.9963 65.5827 81.5735 66.1599 81.5735 66.8718L81.5735 78.2843Z" fill="white"/>
</g>
<defs>
<clipPath id="clip0_102_8">
<rect width="125.597" height="120.4" fill="white" transform="translate(0 20.7965) rotate(-9.53101)"/>
</clipPath>
<clipPath id="clip1_102_8">
<rect width="44" height="44" fill="white" transform="translate(50 48)"/>
</clipPath>
</defs>
</svg>
